WixMadeforText-MediumItalic.ufo
<glyph name="dollar" format="2">
	<unicode hex="0024"/>
	<advance width="660"/>
	<outline>
		<contour>
			<point x="223" y="-116" type="line"/>
			<point x="287" y="-116" type="line"/>
			<point x="389" y="364" type="line"/>
			<point x="325" y="364" type="line"/>
		</contour>
		<contour>
			<point x="329" y="376" type="line"/>
			<point x="393" y="376" type="line"/>
			<point x="490" y="831" type="line"/>
			<point x="426" y="831" type="line"/>
		</contour>
		<contour>
			<point x="37" y="130" type="line"/>
			<point x="92" y="45"/>
			<point x="201" y="-6"/>
			<point x="315" y="-6" type="curve" smooth="yes"/>
			<point x="471" y="-6"/>
			<point x="582" y="86"/>
			<point x="582" y="223" type="curve" smooth="yes"/>
			<point x="582" y="315"/>
			<point x="510" y="380"/>
			<point x="374" y="413" type="curve" smooth="yes"/>
			<point x="272" y="437"/>
			<point x="235" y="464"/>
			<point x="235" y="518" type="curve" smooth="yes"/>
			<point x="235" y="589"/>
			<point x="298" y="635"/>
			<point x="393" y="635" type="curve" smooth="yes"/>
			<point x="478" y="635"/>
			<point x="537" y="599"/>
			<point x="583" y="530" type="curve"/>
			<point x="653" y="589" type="line"/>
			<point x="600" y="672"/>
			<point x="508" y="721"/>
			<point x="398" y="721" type="curve" smooth="yes"/>
			<point x="247" y="721"/>
			<point x="135" y="630"/>
			<point x="135" y="502" type="curve" smooth="yes"/>
			<point x="135" y="414"/>
			<point x="202" y="357"/>
			<point x="337" y="324" type="curve" smooth="yes"/>
			<point x="444" y="297"/>
			<point x="481" y="267"/>
			<point x="481" y="207" type="curve" smooth="yes"/>
			<point x="481" y="129"/>
			<point x="419" y="79"/>
			<point x="320" y="79" type="curve" smooth="yes"/>
			<point x="231" y="79"/>
			<point x="154" y="121"/>
			<point x="108" y="192" type="curve"/>
		</contour>
	</outline>
	<guideline y="-87"/>
	<guideline y="512"/>
	<guideline y="686"/>
</glyph>
<glyph name="ampersand" format="2">
	<unicode hex="0026"/>
	<advance width="658"/>
	<outline>
		<contour>
			<point x="424" y="172" type="line" smooth="yes"/>
			<point x="366" y="108"/>
			<point x="316" y="68"/>
			<point x="246" y="68" type="curve" smooth="yes"/>
			<point x="179" y="68"/>
			<point x="136" y="112"/>
			<point x="136" y="178" type="curve" smooth="yes"/>
			<point x="136" y="264"/>
			<point x="214" y="321"/>
			<point x="302" y="345" type="curve"/>
			<point x="294" y="414" type="line"/>
			<point x="144" y="368"/>
			<point x="30" y="291"/>
			<point x="30" y="164" type="curve" smooth="yes"/>
			<point x="30" y="58"/>
			<point x="116" y="-16"/>
			<point x="238" y="-16" type="curve" smooth="yes"/>
			<point x="337" y="-16"/>
			<point x="412" y="35"/>
			<point x="506" y="138" type="curve" smooth="yes"/>
			<point x="642" y="289" type="line"/>
			<point x="580" y="345" type="line"/>
		</contour>
		<contour>
			<point x="534" y="-16" type="line"/>
			<point x="605" y="44" type="line"/>
			<point x="346" y="381" type="line"/>
			<point x="331" y="400" type="line" smooth="yes"/>
			<point x="283" y="461"/>
			<point x="269" y="500"/>
			<point x="269" y="538" type="curve" smooth="yes"/>
			<point x="269" y="601"/>
			<point x="316" y="650"/>
			<point x="374" y="650" type="curve" smooth="yes"/>
			<point x="424" y="650"/>
			<point x="455" y="614"/>
			<point x="455" y="565" type="curve" smooth="yes"/>
			<point x="455" y="488"/>
			<point x="377" y="440"/>
			<point x="303" y="418" type="curve"/>
			<point x="308" y="350" type="line"/>
			<point x="435" y="385"/>
			<point x="551" y="462"/>
			<point x="551" y="576" type="curve" smooth="yes"/>
			<point x="551" y="676"/>
			<point x="466" y="731"/>
			<point x="376" y="731" type="curve" smooth="yes"/>
			<point x="259" y="731"/>
			<point x="171" y="639"/>
			<point x="171" y="531" type="curve" smooth="yes"/>
			<point x="171" y="476"/>
			<point x="194" y="430"/>
			<point x="244" y="367" type="curve"/>
			<point x="254" y="351" type="line"/>
		</contour>
	</outline>
	<guideline y="201"/>
	<guideline x="164" y="486" angle="102"/>
</glyph>
<glyph name="parenright" format="2">
	<unicode hex="0029"/>
	<advance width="337"/>
	<outline>
		<contour>
			<point x="57" y="-129" type="line"/>
			<point x="206" y="21"/>
			<point x="300" y="231"/>
			<point x="300" y="451" type="curve" smooth="yes"/>
			<point x="300" y="544"/>
			<point x="280" y="643"/>
			<point x="236" y="731" type="curve"/>
			<point x="140" y="731" type="line"/>
			<point x="181" y="637"/>
			<point x="200" y="542"/>
			<point x="200" y="447" type="curve" smooth="yes"/>
			<point x="200" y="231"/>
			<point x="104" y="31"/>
			<point x="-44" y="-129" type="curve"/>
		</contour>
	</outline>
</glyph>
<glyph name="asterisk" format="2">
	<unicode hex="002A"/>
	<advance width="407"/>
	<outline>
		<contour>
			<point x="232" y="519" type="curve"/>
			<point x="176" y="479"/>
			<point x="137" y="447"/>
			<point x="122" y="432" type="curve" smooth="yes"/>
			<point x="111" y="420"/>
			<point x="104" y="406"/>
			<point x="104" y="390" type="curve" smooth="yes"/>
			<point x="104" y="371"/>
			<point x="120" y="356"/>
			<point x="141" y="356" type="curve" smooth="yes"/>
			<point x="157" y="356"/>
			<point x="173" y="363"/>
			<point x="183" y="377" type="curve" smooth="yes"/>
			<point x="198" y="395"/>
			<point x="229" y="444"/>
			<point x="257" y="494" type="curve"/>
			<point x="265" y="444"/>
			<point x="277" y="394"/>
			<point x="285" y="377" type="curve" smooth="yes"/>
			<point x="292" y="362"/>
			<point x="301" y="356"/>
			<point x="315" y="356" type="curve" smooth="yes"/>
			<point x="341" y="356"/>
			<point x="367" y="381"/>
			<point x="367" y="407" type="curve" smooth="yes"/>
			<point x="367" y="416"/>
			<point x="365" y="421"/>
			<point x="359" y="433" type="curve" smooth="yes"/>
			<point x="348" y="452"/>
			<point x="319" y="488"/>
			<point x="291" y="518" type="curve"/>
			<point x="346" y="522"/>
			<point x="392" y="528"/>
			<point x="411" y="534" type="curve" smooth="yes"/>
			<point x="437" y="542"/>
			<point x="454" y="563"/>
			<point x="454" y="588" type="curve" smooth="yes"/>
			<point x="454" y="608"/>
			<point x="441" y="621"/>
			<point x="421" y="621" type="curve" smooth="yes"/>
			<point x="412" y="621"/>
			<point x="402" y="619"/>
			<point x="383" y="610" type="curve" smooth="yes"/>
			<point x="362" y="600"/>
			<point x="329" y="581"/>
			<point x="288" y="555" type="curve"/>
			<point x="321" y="628"/>
			<point x="341" y="680"/>
			<point x="341" y="698" type="curve" smooth="yes"/>
			<point x="341" y="719"/>
			<point x="328" y="731"/>
			<point x="307" y="731" type="curve" smooth="yes"/>
			<point x="281" y="731"/>
			<point x="261" y="713"/>
			<point x="255" y="684" type="curve" smooth="yes"/>
			<point x="253" y="675"/>
			<point x="251" y="658"/>
			<point x="250" y="636" type="curve" smooth="yes"/>
			<point x="249" y="614"/>
			<point x="250" y="586"/>
			<point x="251" y="555" type="curve"/>
			<point x="220" y="581"/>
			<point x="194" y="601"/>
			<point x="177" y="612" type="curve" smooth="yes"/>
			<point x="166" y="617"/>
			<point x="157" y="621"/>
			<point x="145" y="621" type="curve" smooth="yes"/>
			<point x="119" y="621"/>
			<point x="94" y="594"/>
			<point x="94" y="567" type="curve" smooth="yes"/>
			<point x="94" y="552"/>
			<point x="103" y="540"/>
			<point x="119" y="534" type="curve" smooth="yes"/>
			<point x="135" y="528"/>
			<point x="176" y="523"/>
		</contour>
	</outline>
</glyph>
<glyph name="comma" format="2">
	<unicode hex="002C"/>
	<advance width="243"/>
	<outline>
		<contour>
			<point x="26" y="-146" type="line"/>
			<point x="96" y="-86"/>
			<point x="152" y="5"/>
			<point x="152" y="64" type="curve" smooth="yes"/>
			<point x="152" y="102"/>
			<point x="127" y="127"/>
			<point x="91" y="127" type="curve" smooth="yes"/>
			<point x="47" y="127"/>
			<point x="14" y="93"/>
			<point x="14" y="48" type="curve" smooth="yes"/>
			<point x="14" y="13"/>
			<point x="38" y="-12"/>
			<point x="72" y="-12" type="curve"/>
			<point x="65" y="21" type="line"/>
			<point x="54" y="-33"/>
			<point x="17" y="-89"/>
			<point x="-36" y="-146" type="curve"/>
		</contour>
	</outline>
</glyph>
<glyph name="slash" format="2">
	<unicode hex="002F"/>
	<advance width="478"/>
	<outline>
		<contour>
			<point x="0" y="0" type="line"/>
			<point x="100" y="0" type="line"/>
			<point x="529" y="731" type="line"/>
			<point x="428" y="731" type="line"/>
		</contour>
	</outline>
</glyph>
<glyph name="one" format="2">
	<unicode hex="0031"/>
	<advance width="488"/>
	<outline>
		<contour>
			<point x="199" y="0" type="line"/>
			<point x="302" y="0" type="line"/>
			<point x="454" y="715" type="line"/>
			<point x="361" y="715" type="line"/>
			<point x="155" y="578" type="line"/>
			<point x="131" y="465" type="line"/>
			<point x="326" y="598" type="line"/>
		</contour>
	</outline>
</glyph>
<glyph name="two" format="2">
	<unicode hex="0032"/>
	<advance width="532"/>
	<outline>
		<contour>
			<point x="0" y="0" type="line"/>
			<point x="454" y="0" type="line"/>
			<point x="472" y="85" type="line"/>
			<point x="122" y="85" type="line"/>
			<point x="125" y="60" type="line"/>
			<point x="331" y="233" type="line" smooth="yes"/>
			<point x="490" y="366"/>
			<point x="558" y="449"/>
			<point x="558" y="559" type="curve" smooth="yes"/>
			<point x="558" y="660"/>
			<point x="476" y="731"/>
			<point x="358" y="731" type="curve" smooth="yes"/>
			<point x="262" y="731"/>
			<point x="179" y="687"/>
			<point x="107" y="597" type="curve"/>
			<point x="167" y="531" type="line"/>
			<point x="220" y="604"/>
			<point x="285" y="644"/>
			<point x="347" y="644" type="curve" smooth="yes"/>
			<point x="416" y="644"/>
			<point x="458" y="608"/>
			<point x="458" y="549" type="curve" smooth="yes"/>
			<point x="458" y="473"/>
			<point x="408" y="409"/>
			<point x="293" y="312" type="curve" smooth="yes"/>
			<point x="17" y="83" type="line"/>
		</contour>
	</outline>
</glyph>
<glyph name="five" format="2">
	<unicode hex="0035"/>
	<advance width="564"/>
	<outline>
		<contour>
			<point x="13" y="122" type="line"/>
			<point x="52" y="38"/>
			<point x="144" y="-16"/>
			<point x="247" y="-16" type="curve" smooth="yes"/>
			<point x="407" y="-16"/>
			<point x="533" y="111"/>
			<point x="533" y="271" type="curve" smooth="yes"/>
			<point x="533" y="394"/>
			<point x="452" y="478"/>
			<point x="334" y="478" type="curve" smooth="yes"/>
			<point x="259" y="478"/>
			<point x="200" y="442"/>
			<point x="160" y="371" type="curve"/>
			<point x="182" y="371" type="line"/>
			<point x="279" y="671" type="line"/>
			<point x="225" y="630" type="line"/>
			<point x="564" y="630" type="line"/>
			<point x="582" y="715" type="line"/>
			<point x="203" y="715" type="line"/>
			<point x="72" y="308" type="line"/>
			<point x="162" y="308" type="line"/>
			<point x="203" y="364"/>
			<point x="253" y="393"/>
			<point x="309" y="393" type="curve" smooth="yes"/>
			<point x="385" y="393"/>
			<point x="431" y="343"/>
			<point x="431" y="261" type="curve" smooth="yes"/>
			<point x="431" y="155"/>
			<point x="349" y="70"/>
			<point x="247" y="70" type="curve" smooth="yes"/>
			<point x="180" y="70"/>
			<point x="122" y="112"/>
			<point x="89" y="184" type="curve"/>
		</contour>
	</outline>
</glyph>
<glyph name="six" format="2">
	<unicode hex="0036"/>
	<advance width="619"/>
	<outline>
		<contour>
			<point x="364" y="474" type="curve" smooth="yes"/>
			<point x="288" y="474"/>
			<point x="225" y="439"/>
			<point x="189" y="377" type="curve"/>
			<point x="195" y="367" type="line"/>
			<point x="257" y="477"/>
			<point x="371" y="582"/>
			<point x="576" y="715" type="curve"/>
			<point x="426" y="715" type="line"/>
			<point x="176" y="549"/>
			<point x="51" y="377"/>
			<point x="51" y="202" type="curve" smooth="yes"/>
			<point x="51" y="71"/>
			<point x="139" y="-16"/>
			<point x="269" y="-16" type="curve" smooth="yes"/>
			<point x="431" y="-16"/>
			<point x="560" y="113"/>
			<point x="560" y="273" type="curve" smooth="yes"/>
			<point x="560" y="390"/>
			<point x="478" y="474"/>
		</contour>
		<contour>
			<point x="331" y="391" type="curve" smooth="yes"/>
			<point x="407" y="391"/>
			<point x="458" y="338"/>
			<point x="458" y="259" type="curve" smooth="yes"/>
			<point x="458" y="156"/>
			<point x="375" y="69"/>
			<point x="277" y="69" type="curve" smooth="yes"/>
			<point x="201" y="69"/>
			<point x="150" y="123"/>
			<point x="150" y="202" type="curve" smooth="yes"/>
			<point x="150" y="306"/>
			<point x="231" y="391"/>
		</contour>
	</outline>
</glyph>
<glyph name="eight" format="2">
	<unicode hex="0038"/>
	<advance width="604"/>
	<outline>
		<contour>
			<point x="386" y="731" type="curve" smooth="yes"/>
			<point x="248" y="731"/>
			<point x="133" y="634"/>
			<point x="133" y="517" type="curve" smooth="yes"/>
			<point x="133" y="439"/>
			<point x="189" y="377"/>
			<point x="274" y="360" type="curve"/>
			<point x="274" y="396" type="line"/>
			<point x="134" y="378"/>
			<point x="38" y="286"/>
			<point x="38" y="172" type="curve" smooth="yes"/>
			<point x="38" y="57"/>
			<point x="126" y="-16"/>
			<point x="265" y="-16" type="curve" smooth="yes"/>
			<point x="426" y="-16"/>
			<point x="546" y="85"/>
			<point x="546" y="220" type="curve" smooth="yes"/>
			<point x="546" y="311"/>
			<point x="486" y="375"/>
			<point x="378" y="396" type="curve"/>
			<point x="378" y="361" type="line"/>
			<point x="499" y="369"/>
			<point x="591" y="457"/>
			<point x="591" y="563" type="curve" smooth="yes"/>
			<point x="591" y="662"/>
			<point x="507" y="731"/>
		</contour>
		<contour>
			<point x="310" y="329" type="curve" smooth="yes"/>
			<point x="391" y="329"/>
			<point x="442" y="286"/>
			<point x="442" y="218" type="curve" smooth="yes"/>
			<point x="442" y="134"/>
			<point x="368" y="69"/>
			<point x="274" y="69" type="curve" smooth="yes"/>
			<point x="193" y="69"/>
			<point x="142" y="112"/>
			<point x="142" y="180" type="curve" smooth="yes"/>
			<point x="142" y="264"/>
			<point x="216" y="329"/>
		</contour>
		<contour>
			<point x="379" y="647" type="curve" smooth="yes"/>
			<point x="446" y="647"/>
			<point x="490" y="608"/>
			<point x="490" y="548" type="curve" smooth="yes"/>
			<point x="490" y="473"/>
			<point x="427" y="413"/>
			<point x="346" y="413" type="curve" smooth="yes"/>
			<point x="278" y="413"/>
			<point x="235" y="452"/>
			<point x="235" y="512" type="curve" smooth="yes"/>
			<point x="235" y="588"/>
			<point x="298" y="647"/>
		</contour>
	</outline>
	<guideline y="664"/>
	<guideline y="586"/>
</glyph>
<glyph name="nine" format="2">
	<unicode hex="0039"/>
	<advance width="616"/>
	<outline>
		<contour>
			<point x="399" y="731" type="curve" smooth="yes"/>
			<point x="238" y="731"/>
			<point x="108" y="603"/>
			<point x="108" y="442" type="curve" smooth="yes"/>
			<point x="108" y="325"/>
			<point x="191" y="241"/>
			<point x="305" y="241" type="curve" smooth="yes"/>
			<point x="380" y="241"/>
			<point x="441" y="276"/>
			<point x="478" y="337" type="curve"/>
			<point x="472" y="347" type="line"/>
			<point x="411" y="239"/>
			<point x="299" y="136"/>
			<point x="93" y="0" type="curve"/>
			<point x="242" y="0" type="line"/>
			<point x="493" y="167"/>
			<point x="618" y="338"/>
			<point x="618" y="513" type="curve" smooth="yes"/>
			<point x="618" y="644"/>
			<point x="530" y="731"/>
		</contour>
		<contour>
			<point x="392" y="646" type="curve" smooth="yes"/>
			<point x="468" y="646"/>
			<point x="519" y="592"/>
			<point x="519" y="513" type="curve" smooth="yes"/>
			<point x="519" y="409"/>
			<point x="437" y="324"/>
			<point x="338" y="324" type="curve" smooth="yes"/>
			<point x="262" y="324"/>
			<point x="211" y="377"/>
			<point x="211" y="456" type="curve" smooth="yes"/>
			<point x="211" y="559"/>
			<point x="293" y="646"/>
		</contour>
	</outline>
</glyph>
<glyph name="equal" format="2">
	<unicode hex="003D"/>
	<advance width="632"/>
	<outline>
		<contour>
			<point x="121" y="210" type="line"/>
			<point x="493" y="210" type="line"/>
			<point x="511" y="292" type="line"/>
			<point x="139" y="292" type="line"/>
		</contour>
		<contour>
			<point x="166" y="423" type="line"/>
			<point x="538" y="423" type="line"/>
			<point x="556" y="505" type="line"/>
			<point x="184" y="505" type="line"/>
		</contour>
	</outline>
</glyph>
<glyph name="question" format="2">
	<unicode hex="003F"/>
	<advance width="567"/>
	<outline>
		<contour>
			<point x="292" y="213" type="line"/>
			<point x="306" y="282"/>
			<point x="333" y="316"/>
			<point x="402" y="355" type="curve" smooth="yes"/>
			<point x="514" y="417"/>
			<point x="564" y="481"/>
			<point x="564" y="564" type="curve" smooth="yes"/>
			<point x="564" y="657"/>
			<point x="484" y="731"/>
			<point x="371" y="731" type="curve" smooth="yes"/>
			<point x="273" y="731"/>
			<point x="191" y="688"/>
			<point x="116" y="598" type="curve"/>
			<point x="177" y="531" type="line"/>
			<point x="233" y="604"/>
			<point x="297" y="644"/>
			<point x="360" y="644" type="curve" smooth="yes"/>
			<point x="425" y="644"/>
			<point x="465" y="606"/>
			<point x="465" y="551" type="curve" smooth="yes"/>
			<point x="465" y="501"/>
			<point x="433" y="460"/>
			<point x="365" y="423" type="curve" smooth="yes"/>
			<point x="261" y="363"/>
			<point x="231" y="319"/>
			<point x="218" y="213" type="curve"/>
		</contour>
		<contour>
			<point x="160" y="45" type="curve" smooth="yes"/>
			<point x="160" y="11"/>
			<point x="185" y="-12"/>
			<point x="219" y="-12" type="curve" smooth="yes"/>
			<point x="266" y="-12"/>
			<point x="299" y="21"/>
			<point x="299" y="68" type="curve" smooth="yes"/>
			<point x="299" y="102"/>
			<point x="274" y="127"/>
			<point x="241" y="127" type="curve" smooth="yes"/>
			<point x="194" y="127"/>
			<point x="160" y="93"/>
		</contour>
	</outline>
</glyph>
<glyph name="at" format="2">
	<unicode hex="0040"/>
	<advance width="1006"/>
	<outline>
		<contour>
			<point x="648" y="-36" type="line"/>
			<point x="588" y="-85"/>
			<point x="510" y="-111"/>
			<point x="431" y="-111" type="curve" smooth="yes"/>
			<point x="267" y="-111"/>
			<point x="163" y="1"/>
			<point x="163" y="183" type="curve" smooth="yes"/>
			<point x="163" y="438"/>
			<point x="347" y="647"/>
			<point x="576" y="647" type="curve" smooth="yes"/>
			<point x="749" y="647"/>
			<point x="856" y="543"/>
			<point x="856" y="370" type="curve" smooth="yes"/>
			<point x="856" y="226"/>
			<point x="805" y="122"/>
			<point x="733" y="122" type="curve" smooth="yes"/>
			<point x="697" y="122"/>
			<point x="679" y="144"/>
			<point x="679" y="180" type="curve" smooth="yes"/>
			<point x="679" y="196"/>
			<point x="681" y="209"/>
			<point x="684" y="223" type="curve" smooth="yes"/>
			<point x="734" y="464" type="line"/>
			<point x="654" y="464" type="line"/>
			<point x="630" y="346" type="line"/>
			<point x="648" y="348" type="line"/>
			<point x="642" y="429"/>
			<point x="593" y="478"/>
			<point x="515" y="478" type="curve" smooth="yes"/>
			<point x="393" y="478"/>
			<point x="289" y="361"/>
			<point x="289" y="222" type="curve" smooth="yes"/>
			<point x="289" y="113"/>
			<point x="350" y="44"/>
			<point x="448" y="44" type="curve" smooth="yes"/>
			<point x="537" y="44"/>
			<point x="605" y="112"/>
			<point x="643" y="242" type="curve"/>
			<point x="613" y="276" type="line"/>
			<point x="581" y="173"/>
			<point x="526" y="117"/>
			<point x="466" y="117" type="curve" smooth="yes"/>
			<point x="408" y="117"/>
			<point x="375" y="157"/>
			<point x="375" y="225" type="curve" smooth="yes"/>
			<point x="375" y="326"/>
			<point x="442" y="404"/>
			<point x="519" y="404" type="curve" smooth="yes"/>
			<point x="577" y="404"/>
			<point x="610" y="365"/>
			<point x="610" y="292" type="curve" smooth="yes"/>
			<point x="610" y="262"/>
			<point x="607" y="237"/>
			<point x="602" y="215" type="curve" smooth="yes"/>
			<point x="597" y="193"/>
			<point x="596" y="178"/>
			<point x="596" y="163" type="curve" smooth="yes"/>
			<point x="596" y="91"/>
			<point x="644" y="44"/>
			<point x="725" y="44" type="curve" smooth="yes"/>
			<point x="855" y="44"/>
			<point x="948" y="182"/>
			<point x="948" y="370" type="curve" smooth="yes"/>
			<point x="948" y="587"/>
			<point x="801" y="731"/>
			<point x="585" y="731" type="curve" smooth="yes"/>
			<point x="295" y="731"/>
			<point x="71" y="481"/>
			<point x="71" y="168" type="curve" smooth="yes"/>
			<point x="71" y="-47"/>
			<point x="217" y="-194"/>
			<point x="418" y="-194" type="curve" smooth="yes"/>
			<point x="522" y="-194"/>
			<point x="622" y="-160"/>
			<point x="693" y="-106" type="curve"/>
		</contour>
	</outline>
	<guideline x="449" y="-142" angle="90"/>
	<guideline y="44"/>
</glyph>
<glyph name="B" format="2">
	<unicode hex="0042"/>
	<advance width="664"/>
	<outline>
		<contour>
			<point x="46" y="0" type="line"/>
			<point x="320" y="0" type="line" smooth="yes"/>
			<point x="488" y="0"/>
			<point x="599" y="89"/>
			<point x="599" y="225" type="curve" smooth="yes"/>
			<point x="599" y="329"/>
			<point x="513" y="398"/>
			<point x="384" y="398" type="curve" smooth="yes"/>
			<point x="243" y="398" type="line"/>
			<point x="232" y="349" type="line"/>
			<point x="381" y="349" type="line" smooth="yes"/>
			<point x="526" y="349"/>
			<point x="630" y="432"/>
			<point x="630" y="548" type="curve" smooth="yes"/>
			<point x="630" y="649"/>
			<point x="556" y="715"/>
			<point x="445" y="715" type="curve" smooth="yes"/>
			<point x="197" y="715" type="line"/>
		</contour>
		<contour>
			<point x="168" y="88" type="line"/>
			<point x="281" y="627" type="line"/>
			<point x="424" y="627" type="line" smooth="yes"/>
			<point x="487" y="627"/>
			<point x="525" y="591"/>
			<point x="525" y="533" type="curve" smooth="yes"/>
			<point x="525" y="461"/>
			<point x="465" y="411"/>
			<point x="379" y="411" type="curve" smooth="yes"/>
			<point x="226" y="411" type="line"/>
			<point x="207" y="324" type="line"/>
			<point x="386" y="324" type="line" smooth="yes"/>
			<point x="457" y="324"/>
			<point x="495" y="287"/>
			<point x="495" y="220" type="curve" smooth="yes"/>
			<point x="495" y="140"/>
			<point x="433" y="88"/>
			<point x="336" y="88" type="curve" smooth="yes"/>
		</contour>
	</outline>
</glyph>
<glyph name="C" format="2">
	<unicode hex="0043"/>
	<advance width="707"/>
	<outline>
		<contour>
			<point x="598" y="191" type="line"/>
			<point x="538" y="116"/>
			<point x="465" y="76"/>
			<point x="384" y="76" type="curve" smooth="yes"/>
			<point x="263" y="76"/>
			<point x="182" y="165"/>
			<point x="182" y="298" type="curve" smooth="yes"/>
			<point x="182" y="484"/>
			<point x="313" y="639"/>
			<point x="473" y="639" type="curve" smooth="yes"/>
			<point x="556" y="639"/>
			<point x="613" y="605"/>
			<point x="658" y="531" type="curve"/>
			<point x="736" y="594" type="line"/>
			<point x="681" y="682"/>
			<point x="590" y="731"/>
			<point x="479" y="731" type="curve" smooth="yes"/>
			<point x="258" y="731"/>
			<point x="74" y="535"/>
			<point x="74" y="298" type="curve" smooth="yes"/>
			<point x="74" y="107"/>
			<point x="195" y="-16"/>
			<point x="384" y="-16" type="curve" smooth="yes"/>
			<point x="488" y="-16"/>
			<point x="584" y="30"/>
			<point x="658" y="115" type="curve"/>
		</contour>
	</outline>
	<anchor name="top.UC" x="478" y="750"/>
	<anchor name="bottom.UC" x="361" y="-50"/>
</glyph>
<glyph name="D" format="2">
	<unicode hex="0044"/>
	<advance width="749"/>
	<outline>
		<contour>
			<point x="46" y="0" type="line"/>
			<point x="284" y="0" type="line" smooth="yes"/>
			<point x="541" y="0"/>
			<point x="722" y="178"/>
			<point x="722" y="430" type="curve" smooth="yes"/>
			<point x="722" y="604"/>
			<point x="607" y="715"/>
			<point x="426" y="715" type="curve" smooth="yes"/>
			<point x="197" y="715" type="line"/>
		</contour>
		<contour>
			<point x="168" y="90" type="line"/>
			<point x="282" y="625" type="line"/>
			<point x="413" y="625" type="line" smooth="yes"/>
			<point x="538" y="625"/>
			<point x="614" y="548"/>
			<point x="614" y="420" type="curve" smooth="yes"/>
			<point x="614" y="226"/>
			<point x="482" y="90"/>
			<point x="295" y="90" type="curve" smooth="yes"/>
		</contour>
	</outline>
	<anchor name="top.UC" x="427" y="750"/>
</glyph>
<glyph name="E" format="2">
	<unicode hex="0045"/>
	<advance width="597"/>
	<outline>
		<contour>
			<point x="46" y="0" type="line"/>
			<point x="510" y="0" type="line"/>
			<point x="529" y="89" type="line"/>
			<point x="168" y="89" type="line"/>
			<point x="282" y="626" type="line"/>
			<point x="629" y="626" type="line"/>
			<point x="648" y="715" type="line"/>
			<point x="197" y="715" type="line"/>
		</contour>
		<contour>
			<point x="207" y="320" type="line"/>
			<point x="546" y="320" type="line"/>
			<point x="565" y="409" type="line"/>
			<point x="226" y="409" type="line"/>
		</contour>
	</outline>
	<anchor name="ogonek.UC" x="407" y="-30"/>
	<anchor name="top.UC" x="430" y="750"/>
</glyph>
<glyph name="H" format="2">
	<unicode hex="0048"/>
	<advance width="746"/>
	<outline>
		<contour>
			<point x="490" y="0" type="line"/>
			<point x="593" y="0" type="line"/>
			<point x="744" y="715" type="line"/>
			<point x="641" y="715" type="line"/>
		</contour>
		<contour>
			<point x="46" y="0" type="line"/>
			<point x="149" y="0" type="line"/>
			<point x="300" y="715" type="line"/>
			<point x="197" y="715" type="line"/>
		</contour>
		<contour>
			<point x="208" y="325" type="line"/>
			<point x="568" y="325" type="line"/>
			<point x="587" y="415" type="line"/>
			<point x="227" y="415" type="line"/>
		</contour>
	</outline>
	<anchor name="bottom.UC" x="317" y="-50"/>
	<anchor name="top.UC" x="472" y="750"/>
</glyph>
<glyph name="J" format="2">
	<unicode hex="004A"/>
	<advance width="638"/>
	<outline>
		<contour>
			<point x="37" y="231" type="line"/>
			<point x="35" y="215"/>
			<point x="34" y="204"/>
			<point x="34" y="189" type="curve" smooth="yes"/>
			<point x="34" y="54"/>
			<point x="134" y="-16"/>
			<point x="252" y="-16" type="curve" smooth="yes"/>
			<point x="428" y="-16"/>
			<point x="520" y="91"/>
			<point x="555" y="257" type="curve" smooth="yes"/>
			<point x="652" y="715" type="line"/>
			<point x="549" y="715" type="line"/>
			<point x="456" y="275" type="line" smooth="yes"/>
			<point x="429" y="143"/>
			<point x="367" y="77"/>
			<point x="264" y="77" type="curve" smooth="yes"/>
			<point x="181" y="77"/>
			<point x="136" y="122"/>
			<point x="136" y="206" type="curve" smooth="yes"/>
			<point x="136" y="218"/>
			<point x="136" y="233"/>
			<point x="138" y="243" type="curve"/>
		</contour>
	</outline>
	<anchor name="top.UC" x="604" y="750"/>
	<guideline x="291" y="0" angle="102"/>
	<guideline x="479" y="0" angle="102"/>
</glyph>
<glyph name="K" format="2">
	<unicode hex="004B"/>
	<advance width="691"/>
	<outline>
		<contour>
			<point x="46" y="0" type="line"/>
			<point x="149" y="0" type="line"/>
			<point x="300" y="715" type="line"/>
			<point x="197" y="715" type="line"/>
		</contour>
		<contour>
			<point x="484" y="0" type="line"/>
			<point x="612" y="0" type="line"/>
			<point x="317" y="393" type="line"/>
			<point x="320" y="356" type="line"/>
			<point x="732" y="715" type="line"/>
			<point x="602" y="715" type="line"/>
			<point x="219" y="380" type="line"/>
			<point x="207" y="380" type="line"/>
		</contour>
	</outline>
	<anchor name="top.UC" x="432" y="750"/>
	<anchor name="bottom.UC" x="298" y="-50"/>
</glyph>
<glyph name="L" format="2">
	<unicode hex="004C"/>
	<advance width="571"/>
	<outline>
		<contour>
			<point x="46" y="0" type="line"/>
			<point x="484" y="0" type="line"/>
			<point x="503" y="90" type="line"/>
			<point x="168" y="90" type="line"/>
			<point x="300" y="715" type="line"/>
			<point x="197" y="715" type="line"/>
		</contour>
	</outline>
	<anchor name="top_right" x="433" y="540"/>
	<anchor name="bottom.UC" x="270" y="-50"/>
	<anchor name="top.UC" x="258" y="750"/>
</glyph>
<glyph name="M" format="2">
	<unicode hex="004D"/>
	<advance width="905"/>
	<outline>
		<contour>
			<point x="46" y="0" type="line"/>
			<point x="145" y="0" type="line"/>
			<point x="286" y="662" type="line"/>
			<point x="241" y="662" type="line"/>
			<point x="376" y="68" type="line"/>
			<point x="450" y="68" type="line"/>
			<point x="845" y="662" type="line"/>
			<point x="794" y="662" type="line"/>
			<point x="654" y="0" type="line"/>
			<point x="754" y="0" type="line"/>
			<point x="906" y="715" type="line"/>
			<point x="782" y="715" type="line"/>
			<point x="399" y="135" type="line"/>
			<point x="449" y="135" type="line"/>
			<point x="321" y="715" type="line"/>
			<point x="197" y="715" type="line"/>
		</contour>
	</outline>
	<guideline x="39" y="116" angle="0"/>
	<guideline x="96" y="118" angle="0"/>
</glyph>
<glyph name="N" format="2">
	<unicode hex="004E"/>
	<advance width="755"/>
	<outline>
		<contour>
			<point x="46" y="0" type="line"/>
			<point x="146" y="0" type="line"/>
			<point x="275" y="608" type="line"/>
			<point x="247" y="608" type="line"/>
			<point x="493" y="0" type="line"/>
			<point x="602" y="0" type="line"/>
			<point x="753" y="715" type="line"/>
			<point x="653" y="715" type="line"/>
			<point x="524" y="104" type="line"/>
			<point x="552" y="104" type="line"/>
			<point x="306" y="715" type="line"/>
			<point x="197" y="715" type="line"/>
		</contour>
	</outline>
	<anchor name="bottom.UC" x="311" y="-50"/>
	<anchor name="top.UC" x="467" y="750"/>
	<guideline x="130" y="0" angle="102"/>
</glyph>
<glyph name="O" format="2">
	<unicode hex="004F"/>
	<advance width="819"/>
	<outline>
		<contour>
			<point x="483" y="731" type="curve"/>
			<point x="252" y="731"/>
			<point x="74" y="526"/>
			<point x="74" y="293" type="curve" smooth="yes"/>
			<point x="74" y="108"/>
			<point x="193" y="-16"/>
			<point x="379" y="-16" type="curve"/>
			<point x="610" y="-16"/>
			<point x="788" y="189"/>
			<point x="788" y="422" type="curve" smooth="yes"/>
			<point x="788" y="607"/>
			<point x="669" y="731"/>
		</contour>
		<contour>
			<point x="476" y="638" type="curve"/>
			<point x="600" y="638"/>
			<point x="680" y="551"/>
			<point x="680" y="418" type="curve" smooth="yes"/>
			<point x="680" y="239"/>
			<point x="549" y="77"/>
			<point x="386" y="77" type="curve"/>
			<point x="262" y="77"/>
			<point x="182" y="164"/>
			<point x="182" y="297" type="curve" smooth="yes"/>
			<point x="182" y="476"/>
			<point x="313" y="638"/>
		</contour>
	</outline>
	<anchor name="top.UC" x="488" y="750"/>
</glyph>
<glyph name="P" format="2">
	<unicode hex="0050"/>
	<advance width="631"/>
	<outline>
		<contour>
			<point x="46" y="0" type="line"/>
			<point x="149" y="0" type="line"/>
			<point x="281" y="626" type="line"/>
			<point x="426" y="626" type="line" smooth="yes"/>
			<point x="498" y="626"/>
			<point x="537" y="591"/>
			<point x="537" y="532" type="curve" smooth="yes"/>
			<point x="537" y="444"/>
			<point x="479" y="387"/>
			<point x="376" y="387" type="curve" smooth="yes"/>
			<point x="221" y="387" type="line"/>
			<point x="202" y="298" type="line"/>
			<point x="361" y="298" type="line" smooth="yes"/>
			<point x="533" y="298"/>
			<point x="642" y="395"/>
			<point x="642" y="536" type="curve" smooth="yes"/>
			<point x="642" y="644"/>
			<point x="570" y="715"/>
			<point x="444" y="715" type="curve" smooth="yes"/>
			<point x="197" y="715" type="line"/>
		</contour>
	</outline>
</glyph>
<glyph name="Q" format="2">
	<unicode hex="0051"/>
	<advance width="816"/>
	<outline>
		<contour>
			<point x="505" y="284" type="line"/>
			<point x="435" y="234" type="line"/>
			<point x="636" y="-49" type="line"/>
			<point x="707" y="2" type="line"/>
		</contour>
		<contour>
			<point x="483" y="731" type="curve" smooth="yes"/>
			<point x="259" y="731"/>
			<point x="74" y="534"/>
			<point x="74" y="293" type="curve" smooth="yes"/>
			<point x="74" y="107"/>
			<point x="194" y="-16"/>
			<point x="379" y="-16" type="curve" smooth="yes"/>
			<point x="603" y="-16"/>
			<point x="788" y="181"/>
			<point x="788" y="422" type="curve" smooth="yes"/>
			<point x="788" y="608"/>
			<point x="668" y="731"/>
		</contour>
		<contour>
			<point x="476" y="638" type="curve" smooth="yes"/>
			<point x="600" y="638"/>
			<point x="681" y="551"/>
			<point x="681" y="418" type="curve" smooth="yes"/>
			<point x="681" y="234"/>
			<point x="545" y="77"/>
			<point x="386" y="77" type="curve" smooth="yes"/>
			<point x="262" y="77"/>
			<point x="181" y="164"/>
			<point x="181" y="297" type="curve" smooth="yes"/>
			<point x="181" y="481"/>
			<point x="317" y="638"/>
		</contour>
	</outline>
</glyph>
<glyph name="S" format="2">
	<unicode hex="0053"/>
	<advance width="648"/>
	<outline>
		<contour>
			<point x="17" y="124" type="line"/>
			<point x="74" y="39"/>
			<point x="189" y="-16"/>
			<point x="312" y="-16" type="curve" smooth="yes"/>
			<point x="477" y="-16"/>
			<point x="591" y="79"/>
			<point x="591" y="217" type="curve" smooth="yes"/>
			<point x="591" y="317"/>
			<point x="522" y="379"/>
			<point x="372" y="415" type="curve" smooth="yes"/>
			<point x="266" y="442"/>
			<point x="228" y="471"/>
			<point x="228" y="523" type="curve" smooth="yes"/>
			<point x="228" y="592"/>
			<point x="294" y="640"/>
			<point x="387" y="640" type="curve" smooth="yes"/>
			<point x="470" y="640"/>
			<point x="536" y="605"/>
			<point x="585" y="534" type="curve"/>
			<point x="661" y="596" type="line"/>
			<point x="606" y="682"/>
			<point x="507" y="731"/>
			<point x="391" y="731" type="curve" smooth="yes"/>
			<point x="235" y="731"/>
			<point x="122" y="638"/>
			<point x="122" y="508" type="curve" smooth="yes"/>
			<point x="122" y="414"/>
			<point x="186" y="358"/>
			<point x="335" y="322" type="curve" smooth="yes"/>
			<point x="444" y="294"/>
			<point x="484" y="263"/>
			<point x="484" y="204" type="curve" smooth="yes"/>
			<point x="484" y="126"/>
			<point x="417" y="75"/>
			<point x="316" y="75" type="curve" smooth="yes"/>
			<point x="226" y="75"/>
			<point x="145" y="116"/>
			<point x="95" y="188" type="curve"/>
		</contour>
	</outline>
	<anchor name="bottom.UC" x="303" y="-50"/>
	<anchor name="top.UC" x="397" y="750"/>
</glyph>
<glyph name="T" format="2">
	<unicode hex="0054"/>
	<advance width="596"/>
	<outline>
		<contour>
			<point x="195" y="0" type="line"/>
			<point x="298" y="0" type="line"/>
			<point x="432" y="635" type="line"/>
			<point x="329" y="635" type="line"/>
		</contour>
		<contour>
			<point x="116" y="625" type="line"/>
			<point x="641" y="625" type="line"/>
			<point x="660" y="715" type="line"/>
			<point x="135" y="715" type="line"/>
		</contour>
	</outline>
	<anchor name="top.UC" x="396" y="750"/>
	<anchor name="bottom.UC" x="228" y="-50"/>
</glyph>
<glyph name="U" format="2">
	<unicode hex="0055"/>
	<advance width="717"/>
	<outline>
		<contour>
			<point x="92" y="282" type="line" smooth="yes"/>
			<point x="86" y="254"/>
			<point x="84" y="227"/>
			<point x="84" y="202" type="curve" smooth="yes"/>
			<point x="84" y="63"/>
			<point x="169" y="-16"/>
			<point x="323" y="-16" type="curve" smooth="yes"/>
			<point x="495" y="-16"/>
			<point x="599" y="91"/>
			<point x="640" y="284" type="curve" smooth="yes"/>
			<point x="731" y="715" type="line"/>
			<point x="630" y="715" type="line"/>
			<point x="538" y="282" type="line" smooth="yes"/>
			<point x="511" y="153"/>
			<point x="442" y="77"/>
			<point x="331" y="77" type="curve" smooth="yes"/>
			<point x="231" y="77"/>
			<point x="187" y="127"/>
			<point x="187" y="213" type="curve" smooth="yes"/>
			<point x="187" y="233"/>
			<point x="190" y="257"/>
			<point x="195" y="282" type="curve" smooth="yes"/>
			<point x="286" y="715" type="line"/>
			<point x="183" y="715" type="line"/>
		</contour>
	</outline>
	<anchor name="ogonek.UC.round" x="344" y="-30"/>
	<anchor name="top.UC" x="466" y="750"/>
	<guideline x="4" y="42" angle="102"/>
</glyph>
<glyph name="V" format="2">
	<unicode hex="0056"/>
	<advance width="700"/>
	<outline>
		<contour>
			<point x="245" y="0" type="line"/>
			<point x="351" y="0" type="line"/>
			<point x="760" y="715" type="line"/>
			<point x="650" y="715" type="line"/>
			<point x="293" y="71" type="line"/>
			<point x="328" y="71" type="line"/>
			<point x="247" y="715" type="line"/>
			<point x="140" y="715" type="line"/>
		</contour>
	</outline>
</glyph>
<glyph name="W" format="2">
	<unicode hex="0057"/>
	<advance width="996"/>
	<outline>
		<contour>
			<point x="189" y="0" type="line"/>
			<point x="302" y="0" type="line"/>
			<point x="581" y="589" type="line"/>
			<point x="568" y="589" type="line"/>
			<point x="592" y="0" type="line"/>
			<point x="706" y="0" type="line"/>
			<point x="1053" y="715" type="line"/>
			<point x="942" y="715" type="line"/>
			<point x="645" y="75" type="line"/>
			<point x="676" y="75" type="line"/>
			<point x="649" y="715" type="line"/>
			<point x="549" y="715" type="line"/>
			<point x="245" y="75" type="line"/>
			<point x="276" y="75" type="line"/>
			<point x="248" y="715" type="line"/>
			<point x="142" y="715" type="line"/>
		</contour>
	</outline>
	<anchor name="top.UC" x="599" y="750"/>
</glyph>
<glyph name="Y" format="2">
	<unicode hex="0059"/>
	<advance width="669"/>
	<outline>
		<contour>
			<point x="231" y="0" type="line"/>
			<point x="334" y="0" type="line"/>
			<point x="398" y="302" type="line"/>
			<point x="734" y="715" type="line"/>
			<point x="616" y="715" type="line"/>
			<point x="346" y="371" type="line"/>
			<point x="373" y="371" type="line"/>
			<point x="245" y="715" type="line"/>
			<point x="135" y="715" type="line"/>
			<point x="295" y="303" type="line"/>
		</contour>
	</outline>
	<anchor name="top.UC" x="439" y="750"/>
</glyph>
<glyph name="backslash" format="2">
	<unicode hex="005C"/>
	<advance width="475"/>
	<outline>
		<contour>
			<point x="371" y="0" type="line"/>
			<point x="251" y="731" type="line"/>
			<point x="155" y="731" type="line"/>
			<point x="274" y="0" type="line"/>
		</contour>
	</outline>
</glyph>
<glyph name="bracketright" format="2">
	<unicode hex="005D"/>
	<advance width="312"/>
	<outline>
		<contour>
			<point x="-48" y="-129" type="line"/>
			<point x="154" y="-129" type="line"/>
			<point x="336" y="731" type="line"/>
			<point x="134" y="731" type="line"/>
			<point x="117" y="650" type="line"/>
			<point x="221" y="650" type="line"/>
			<point x="73" y="-48" type="line"/>
			<point x="-31" y="-48" type="line"/>
		</contour>
	</outline>
</glyph>
<glyph name="underscore" format="2">
	<unicode hex="005F"/>
	<advance width="450"/>
	<outline>
		<contour>
			<point x="-84" y="-138" type="line"/>
			<point x="370" y="-138" type="line"/>
			<point x="388" y="-56" type="line"/>
			<point x="-67" y="-56" type="line"/>
		</contour>
	</outline>
</glyph>
<glyph name="a" format="2">
	<unicode hex="0061"/>
	<advance width="545"/>
	<outline>
		<contour>
			<point x="334" y="0" type="line"/>
			<point x="425" y="0" type="line"/>
			<point x="485" y="285" type="line" smooth="yes"/>
			<point x="489" y="306"/>
			<point x="492" y="330"/>
			<point x="492" y="348" type="curve" smooth="yes"/>
			<point x="492" y="452"/>
			<point x="426" y="513"/>
			<point x="308" y="513" type="curve" smooth="yes"/>
			<point x="224" y="513"/>
			<point x="140" y="481"/>
			<point x="86" y="425" type="curve"/>
			<point x="140" y="360" type="line"/>
			<point x="183" y="407"/>
			<point x="240" y="432"/>
			<point x="298" y="432" type="curve" smooth="yes"/>
			<point x="379" y="432"/>
			<point x="410" y="384"/>
			<point x="392" y="296" type="curve" smooth="yes"/>
			<point x="355" y="114" type="line"/>
			<point x="356" y="101" type="line"/>
		</contour>
		<contour>
			<point x="269" y="307" type="line" smooth="yes"/>
			<point x="113" y="307"/>
			<point x="15" y="239"/>
			<point x="15" y="133" type="curve" smooth="yes"/>
			<point x="15" y="45"/>
			<point x="83" y="-16"/>
			<point x="179" y="-16" type="curve" smooth="yes"/>
			<point x="294" y="-16"/>
			<point x="379" y="74"/>
			<point x="417" y="234" type="curve"/>
			<point x="395" y="252" type="line"/>
			<point x="358" y="134"/>
			<point x="286" y="62"/>
			<point x="205" y="62" type="curve" smooth="yes"/>
			<point x="152" y="62"/>
			<point x="117" y="93"/>
			<point x="117" y="139" type="curve" smooth="yes"/>
			<point x="117" y="200"/>
			<point x="172" y="236"/>
			<point x="267" y="236" type="curve" smooth="yes"/>
			<point x="391" y="236" type="line"/>
			<point x="406" y="307" type="line"/>
		</contour>
	</outline>
	<anchor name="ogonek.LC" x="333" y="-30"/>
	<anchor name="top.LC" x="317" y="544"/>
</glyph>
<glyph name="b" format="2">
	<unicode hex="0062"/>
	<advance width="623"/>
	<outline>
		<contour>
			<point x="27" y="0" type="line"/>
			<point x="127" y="0" type="line"/>
			<point x="161" y="159" type="line" smooth="yes"/>
			<point x="198" y="333"/>
			<point x="267" y="427"/>
			<point x="361" y="427" type="curve" smooth="yes"/>
			<point x="433" y="427"/>
			<point x="475" y="377"/>
			<point x="475" y="293" type="curve" smooth="yes"/>
			<point x="475" y="168"/>
			<point x="396" y="69"/>
			<point x="296" y="69" type="curve" smooth="yes"/>
			<point x="222" y="69"/>
			<point x="158" y="121"/>
			<point x="151" y="187" type="curve"/>
			<point x="116" y="146" type="line"/>
			<point x="125" y="50"/>
			<point x="202" y="-16"/>
			<point x="306" y="-16" type="curve" smooth="yes"/>
			<point x="457" y="-16"/>
			<point x="580" y="125"/>
			<point x="580" y="299" type="curve" smooth="yes"/>
			<point x="580" y="429"/>
			<point x="509" y="513"/>
			<point x="396" y="513" type="curve" smooth="yes"/>
			<point x="304" y="513"/>
			<point x="229" y="456"/>
			<point x="186" y="351" type="curve"/>
			<point x="201" y="354" type="line"/>
			<point x="279" y="720" type="line"/>
			<point x="179" y="720" type="line"/>
		</contour>
	</outline>
	<guideline y="427"/>
</glyph>
<glyph name="c" format="2">
	<unicode hex="0063"/>
	<advance width="535"/>
	<outline>
		<contour>
			<point x="417" y="150" type="line"/>
			<point x="379" y="97"/>
			<point x="329" y="70"/>
			<point x="273" y="70" type="curve" smooth="yes"/>
			<point x="195" y="70"/>
			<point x="148" y="124"/>
			<point x="148" y="205" type="curve" smooth="yes"/>
			<point x="148" y="328"/>
			<point x="225" y="427"/>
			<point x="328" y="427" type="curve" smooth="yes"/>
			<point x="383" y="427"/>
			<point x="425" y="401"/>
			<point x="452" y="348" type="curve"/>
			<point x="528" y="402" type="line"/>
			<point x="489" y="473"/>
			<point x="417" y="513"/>
			<point x="330" y="513" type="curve" smooth="yes"/>
			<point x="170" y="513"/>
			<point x="43" y="373"/>
			<point x="43" y="201" type="curve" smooth="yes"/>
			<point x="43" y="72"/>
			<point x="134" y="-16"/>
			<point x="263" y="-16" type="curve" smooth="yes"/>
			<point x="343" y="-16"/>
			<point x="417" y="18"/>
			<point x="474" y="81" type="curve"/>
		</contour>
	</outline>
	<anchor name="bottom.LC" x="261" y="-50"/>
	<anchor name="top.LC" x="339" y="544"/>
</glyph>
<glyph name="e" format="2">
	<unicode hex="0065"/>
	<advance width="567"/>
	<outline>
		<contour>
			<point x="118" y="216" type="line"/>
			<point x="329" y="216" type="line" smooth="yes"/>
			<point x="454" y="216"/>
			<point x="528" y="269"/>
			<point x="528" y="358" type="curve" smooth="yes"/>
			<point x="528" y="450"/>
			<point x="450" y="513"/>
			<point x="335" y="513" type="curve" smooth="yes"/>
			<point x="171" y="513"/>
			<point x="43" y="378"/>
			<point x="43" y="203" type="curve" smooth="yes"/>
			<point x="43" y="70"/>
			<point x="135" y="-16"/>
			<point x="276" y="-16" type="curve" smooth="yes"/>
			<point x="364" y="-16"/>
			<point x="435" y="16"/>
			<point x="493" y="81" type="curve"/>
			<point x="438" y="148" type="line"/>
			<point x="397" y="95"/>
			<point x="343" y="67"/>
			<point x="284" y="67" type="curve" smooth="yes"/>
			<point x="200" y="67"/>
			<point x="147" y="120"/>
			<point x="147" y="202" type="curve" smooth="yes"/>
			<point x="147" y="335"/>
			<point x="226" y="430"/>
			<point x="336" y="430" type="curve" smooth="yes"/>
			<point x="391" y="430"/>
			<point x="430" y="400"/>
			<point x="430" y="357" type="curve" smooth="yes"/>
			<point x="430" y="313"/>
			<point x="391" y="288"/>
			<point x="324" y="288" type="curve" smooth="yes"/>
			<point x="118" y="288" type="line"/>
		</contour>
	</outline>
	<anchor name="ogonek.LC.round" x="348" y="-30"/>
	<anchor name="top.LC" x="352" y="544"/>
</glyph>
<glyph name="f" format="2">
	<unicode hex="0066"/>
	<advance width="362"/>
	<outline>
		<contour>
			<point x="65" y="0" type="line"/>
			<point x="165" y="0" type="line"/>
			<point x="288" y="581" type="line" smooth="yes"/>
			<point x="297" y="622"/>
			<point x="315" y="639"/>
			<point x="350" y="639" type="curve" smooth="yes"/>
			<point x="421" y="639" type="line"/>
			<point x="438" y="720" type="line"/>
			<point x="338" y="720" type="line" smooth="yes"/>
			<point x="256" y="720"/>
			<point x="208" y="678"/>
			<point x="190" y="589" type="curve" smooth="yes"/>
		</contour>
		<contour>
			<point x="69" y="413" type="line"/>
			<point x="373" y="413" type="line"/>
			<point x="390" y="497" type="line"/>
			<point x="86" y="497" type="line"/>
		</contour>
	</outline>
	<guideline x="135" y="0" angle="102"/>
</glyph>
<glyph name="g" format="2">
	<unicode hex="0067"/>
	<advance width="612"/>
	<outline>
		<contour>
			<point x="6" y="-112" type="line"/>
			<point x="55" y="-177"/>
			<point x="130" y="-210"/>
			<point x="222" y="-210" type="curve" smooth="yes"/>
			<point x="373" y="-210"/>
			<point x="461" y="-130"/>
			<point x="497" y="37" type="curve" smooth="yes"/>
			<point x="593" y="497" type="line"/>
			<point x="495" y="497" type="line"/>
			<point x="462" y="345" type="line"/>
			<point x="486" y="355" type="line"/>
			<point x="477" y="454"/>
			<point x="418" y="513"/>
			<point x="320" y="513" type="curve" smooth="yes"/>
			<point x="167" y="513"/>
			<point x="40" y="373"/>
			<point x="40" y="202" type="curve" smooth="yes"/>
			<point x="40" y="74"/>
			<point x="116" y="-4"/>
			<point x="230" y="-4" type="curve" smooth="yes"/>
			<point x="343" y="-4"/>
			<point x="419" y="82"/>
			<point x="467" y="236" type="curve"/>
			<point x="445" y="278" type="line"/>
			<point x="407" y="154"/>
			<point x="335" y="81"/>
			<point x="257" y="81" type="curve" smooth="yes"/>
			<point x="186" y="81"/>
			<point x="145" y="127"/>
			<point x="145" y="209" type="curve" smooth="yes"/>
			<point x="145" y="329"/>
			<point x="225" y="428"/>
			<point x="324" y="428" type="curve" smooth="yes"/>
			<point x="397" y="428"/>
			<point x="440" y="377"/>
			<point x="440" y="286" type="curve" smooth="yes"/>
			<point x="440" y="258"/>
			<point x="437" y="229"/>
			<point x="431" y="199" type="curve" smooth="yes"/>
			<point x="397" y="40" type="line" smooth="yes"/>
			<point x="374" y="-69"/>
			<point x="314" y="-124"/>
			<point x="222" y="-124" type="curve" smooth="yes"/>
			<point x="159" y="-124"/>
			<point x="109" y="-99"/>
			<point x="71" y="-48" type="curve"/>
		</contour>
	</outline>
	<anchor name="top.LC" x="329" y="544"/>
</glyph>
<glyph name="i" format="2">
	<unicode hex="0069"/>
	<advance width="248"/>
	<outline>
		<contour>
			<point x="25" y="0" type="line"/>
			<point x="125" y="0" type="line"/>
			<point x="230" y="497" type="line"/>
			<point x="130" y="497" type="line"/>
		</contour>
		<contour>
			<point x="150" y="663" type="curve" smooth="yes"/>
			<point x="150" y="631"/>
			<point x="172" y="609"/>
			<point x="207" y="609" type="curve" smooth="yes"/>
			<point x="251" y="609"/>
			<point x="284" y="642"/>
			<point x="284" y="684" type="curve" smooth="yes"/>
			<point x="284" y="717"/>
			<point x="262" y="739"/>
			<point x="227" y="739" type="curve" smooth="yes"/>
			<point x="184" y="739"/>
			<point x="150" y="706"/>
		</contour>
	</outline>
	<anchor name="ogonek.LC" x="30" y="-30"/>
</glyph>
<glyph name="j" format="2">
	<unicode hex="006A"/>
	<advance width="247"/>
	<outline>
		<contour>
			<point x="-97" y="-194" type="line"/>
			<point x="-40" y="-194" type="line" smooth="yes"/>
			<point x="47" y="-194"/>
			<point x="90" y="-156"/>
			<point x="110" y="-64" type="curve" smooth="yes"/>
			<point x="230" y="497" type="line"/>
			<point x="130" y="497" type="line"/>
			<point x="13" y="-51" type="line" smooth="yes"/>
			<point x="4" y="-92"/>
			<point x="-12" y="-111"/>
			<point x="-50" y="-111" type="curve" smooth="yes"/>
			<point x="-80" y="-111" type="line"/>
		</contour>
		<contour>
			<point x="149" y="663" type="curve" smooth="yes"/>
			<point x="149" y="631"/>
			<point x="171" y="609"/>
			<point x="205" y="609" type="curve" smooth="yes"/>
			<point x="250" y="609"/>
			<point x="283" y="642"/>
			<point x="283" y="684" type="curve" smooth="yes"/>
			<point x="283" y="717"/>
			<point x="261" y="739"/>
			<point x="226" y="739" type="curve" smooth="yes"/>
			<point x="182" y="739"/>
			<point x="149" y="705"/>
		</contour>
	</outline>
</glyph>
<glyph name="k" format="2">
	<unicode hex="006B"/>
	<advance width="544"/>
	<outline>
		<contour>
			<point x="27" y="0" type="line"/>
			<point x="127" y="0" type="line"/>
			<point x="280" y="720" type="line"/>
			<point x="180" y="720" type="line"/>
		</contour>
		<contour>
			<point x="360" y="0" type="line"/>
			<point x="487" y="0" type="line"/>
			<point x="271" y="267" type="line"/>
			<point x="269" y="245" type="line"/>
			<point x="568" y="497" type="line"/>
			<point x="441" y="497" type="line"/>
			<point x="162" y="258" type="line"/>
			<point x="156" y="258" type="line"/>
		</contour>
	</outline>
	<anchor name="bottom.LC" x="232" y="-50"/>
</glyph>
<glyph name="l" format="2">
	<unicode hex="006C"/>
	<advance width="291"/>
	<outline>
		<contour>
			<point x="58" y="151" type="line" smooth="yes"/>
			<point x="53" y="129"/>
			<point x="52" y="111"/>
			<point x="52" y="97" type="curve" smooth="yes"/>
			<point x="52" y="31"/>
			<point x="89" y="0"/>
			<point x="165" y="0" type="curve" smooth="yes"/>
			<point x="224" y="0" type="line"/>
			<point x="242" y="85" type="line"/>
			<point x="190" y="85" type="line" smooth="yes"/>
			<point x="165" y="85"/>
			<point x="155" y="96"/>
			<point x="155" y="118" type="curve" smooth="yes"/>
			<point x="155" y="129"/>
			<point x="156" y="137"/>
			<point x="159" y="155" type="curve" smooth="yes"/>
			<point x="280" y="720" type="line"/>
			<point x="180" y="720" type="line"/>
		</contour>
	</outline>
	<anchor name="top_right" x="361" y="540"/>
	<anchor name="bottom.LC" x="135" y="-50"/>
	<anchor name="top.LC" x="237" y="766"/>
	<guideline x="62" y="0" angle="102"/>
</glyph>
<glyph name="m" format="2">
	<unicode hex="006D"/>
	<advance width="876"/>
	<outline>
		<contour>
			<point x="27" y="0" type="line"/>
			<point x="127" y="0" type="line"/>
			<point x="162" y="167" type="line" smooth="yes"/>
			<point x="199" y="340"/>
			<point x="256" y="427"/>
			<point x="341" y="427" type="curve" smooth="yes"/>
			<point x="384" y="427"/>
			<point x="409" y="397"/>
			<point x="409" y="349" type="curve" smooth="yes"/>
			<point x="409" y="335"/>
			<point x="407" y="314"/>
			<point x="402" y="293" type="curve" smooth="yes"/>
			<point x="340" y="0" type="line"/>
			<point x="440" y="0" type="line"/>
			<point x="476" y="167" type="line" smooth="yes"/>
			<point x="513" y="340"/>
			<point x="569" y="427"/>
			<point x="655" y="427" type="curve" smooth="yes"/>
			<point x="697" y="427"/>
			<point x="723" y="397"/>
			<point x="723" y="349" type="curve" smooth="yes"/>
			<point x="723" y="335"/>
			<point x="720" y="314"/>
			<point x="716" y="293" type="curve" smooth="yes"/>
			<point x="654" y="0" type="line"/>
			<point x="754" y="0" type="line"/>
			<point x="816" y="291" type="line" smooth="yes"/>
			<point x="822" y="322"/>
			<point x="824" y="345"/>
			<point x="824" y="364" type="curve" smooth="yes"/>
			<point x="824" y="458"/>
			<point x="772" y="513"/>
			<point x="690" y="513" type="curve" smooth="yes"/>
			<point x="607" y="513"/>
			<point x="533" y="458"/>
			<point x="490" y="363" type="curve"/>
			<point x="501" y="360" type="line"/>
			<point x="504" y="456"/>
			<point x="457" y="513"/>
			<point x="377" y="513" type="curve" smooth="yes"/>
			<point x="306" y="513"/>
			<point x="238" y="465"/>
			<point x="198" y="382" type="curve"/>
			<point x="206" y="380" type="line"/>
			<point x="231" y="497" type="line"/>
			<point x="132" y="497" type="line"/>
		</contour>
	</outline>
</glyph>
<glyph name="p" format="2">
	<unicode hex="0070"/>
	<advance width="623"/>
	<outline>
		<contour>
			<point x="-14" y="-194" type="line"/>
			<point x="86" y="-194" type="line"/>
			<point x="161" y="159" type="line" smooth="yes"/>
			<point x="198" y="335"/>
			<point x="269" y="428"/>
			<point x="361" y="428" type="curve" smooth="yes"/>
			<point x="435" y="428"/>
			<point x="476" y="375"/>
			<point x="476" y="293" type="curve" smooth="yes"/>
			<point x="476" y="167"/>
			<point x="396" y="69"/>
			<point x="296" y="69" type="curve" smooth="yes"/>
			<point x="224" y="69"/>
			<point x="158" y="121"/>
			<point x="151" y="187" type="curve"/>
			<point x="116" y="146" type="line"/>
			<point x="125" y="49"/>
			<point x="203" y="-16"/>
			<point x="306" y="-16" type="curve" smooth="yes"/>
			<point x="459" y="-16"/>
			<point x="581" y="126"/>
			<point x="581" y="300" type="curve" smooth="yes"/>
			<point x="581" y="429"/>
			<point x="509" y="513"/>
			<point x="396" y="513" type="curve" smooth="yes"/>
			<point x="305" y="513"/>
			<point x="231" y="457"/>
			<point x="187" y="351" type="curve"/>
			<point x="201" y="354" type="line"/>
			<point x="232" y="497" type="line"/>
			<point x="132" y="497" type="line"/>
		</contour>
	</outline>
	<guideline y="114"/>
	<guideline y="428"/>
</glyph>
<glyph name="q" format="2">
	<unicode hex="0071"/>
	<advance width="622"/>
	<outline>
		<contour>
			<point x="350" y="-194" type="line"/>
			<point x="450" y="-194" type="line"/>
			<point x="596" y="497" type="line"/>
			<point x="497" y="497" type="line"/>
			<point x="465" y="345" type="line"/>
			<point x="487" y="355" type="line"/>
			<point x="479" y="454"/>
			<point x="418" y="513"/>
			<point x="322" y="513" type="curve" smooth="yes"/>
			<point x="167" y="513"/>
			<point x="43" y="370"/>
			<point x="43" y="201" type="curve" smooth="yes"/>
			<point x="43" y="62"/>
			<point x="117" y="-16"/>
			<point x="232" y="-16" type="curve" smooth="yes"/>
			<point x="349" y="-16"/>
			<point x="423" y="73"/>
			<point x="467" y="225" type="curve"/>
			<point x="447" y="267" type="line"/>
			<point x="410" y="146"/>
			<point x="345" y="69"/>
			<point x="260" y="69" type="curve" smooth="yes"/>
			<point x="190" y="69"/>
			<point x="148" y="120"/>
			<point x="148" y="206" type="curve" smooth="yes"/>
			<point x="148" y="328"/>
			<point x="229" y="428"/>
			<point x="327" y="428" type="curve" smooth="yes"/>
			<point x="399" y="428"/>
			<point x="443" y="376"/>
			<point x="443" y="286" type="curve" smooth="yes"/>
			<point x="443" y="255"/>
			<point x="438" y="222"/>
			<point x="430" y="183" type="curve" smooth="yes"/>
		</contour>
	</outline>
	<guideline y="69"/>
</glyph>
<glyph name="r" format="2">
	<unicode hex="0072"/>
	<advance width="380"/>
	<outline>
		<contour>
			<point x="27" y="0" type="line"/>
			<point x="127" y="0" type="line"/>
			<point x="171" y="209" type="line" smooth="yes"/>
			<point x="200" y="348"/>
			<point x="272" y="410"/>
			<point x="367" y="410" type="curve" smooth="yes"/>
			<point x="388" y="410" type="line"/>
			<point x="408" y="505" type="line"/>
			<point x="391" y="505" type="line" smooth="yes"/>
			<point x="297" y="505"/>
			<point x="217" y="441"/>
			<point x="180" y="329" type="curve"/>
			<point x="196" y="329" type="line"/>
			<point x="231" y="497" type="line"/>
			<point x="132" y="497" type="line"/>
		</contour>
	</outline>
	<anchor name="top.LC" x="287" y="544"/>
</glyph>
<glyph name="t" format="2">
	<unicode hex="0074"/>
	<advance width="371"/>
	<outline>
		<contour>
			<point x="96" y="162" type="line" smooth="yes"/>
			<point x="90" y="138"/>
			<point x="87" y="117"/>
			<point x="87" y="101" type="curve" smooth="yes"/>
			<point x="87" y="33"/>
			<point x="125" y="0"/>
			<point x="208" y="0" type="curve" smooth="yes"/>
			<point x="288" y="0" type="line"/>
			<point x="306" y="85" type="line"/>
			<point x="233" y="85" type="line" smooth="yes"/>
			<point x="201" y="85"/>
			<point x="190" y="95"/>
			<point x="190" y="122" type="curve" smooth="yes"/>
			<point x="190" y="131"/>
			<point x="192" y="142"/>
			<point x="195" y="158" type="curve" smooth="yes"/>
			<point x="297" y="636" type="line"/>
			<point x="197" y="636" type="line"/>
		</contour>
		<contour>
			<point x="65" y="413" type="line"/>
			<point x="363" y="413" type="line"/>
			<point x="381" y="497" type="line"/>
			<point x="82" y="497" type="line"/>
		</contour>
	</outline>
	<anchor name="top_right.LC.short" x="382" y="540"/>
	<anchor name="bottom.LC" x="186" y="-50"/>
</glyph>
<glyph name="u" format="2">
	<unicode hex="0075"/>
	<advance width="582"/>
	<outline>
		<contour>
			<point x="446" y="0" type="line"/>
			<point x="551" y="497" type="line"/>
			<point x="451" y="497" type="line"/>
			<point x="417" y="339" type="line" smooth="yes"/>
			<point x="379" y="158"/>
			<point x="317" y="69"/>
			<point x="226" y="69" type="curve" smooth="yes"/>
			<point x="181" y="69"/>
			<point x="154" y="99"/>
			<point x="154" y="149" type="curve" smooth="yes"/>
			<point x="154" y="164"/>
			<point x="157" y="188"/>
			<point x="163" y="214" type="curve" smooth="yes"/>
			<point x="222" y="497" type="line"/>
			<point x="122" y="497" type="line"/>
			<point x="63" y="214" type="line" smooth="yes"/>
			<point x="55" y="179"/>
			<point x="53" y="152"/>
			<point x="53" y="130" type="curve" smooth="yes"/>
			<point x="53" y="39"/>
			<point x="104" y="-16"/>
			<point x="192" y="-16" type="curve" smooth="yes"/>
			<point x="289" y="-16"/>
			<point x="378" y="67"/>
			<point x="411" y="205" type="curve"/>
			<point x="379" y="153" type="line"/>
			<point x="347" y="0" type="line"/>
		</contour>
	</outline>
	<anchor name="ogonek.LC" x="348" y="-30"/>
	<anchor name="top.LC" x="342" y="544"/>
	<guideline x="84" y="37" angle="102"/>
</glyph>
<glyph name="v" format="2">
	<unicode hex="0076"/>
	<advance width="543"/>
	<outline>
		<contour>
			<point x="165" y="0" type="line"/>
			<point x="266" y="0" type="line"/>
			<point x="565" y="497" type="line"/>
			<point x="461" y="497" type="line"/>
			<point x="213" y="63" type="line"/>
			<point x="243" y="63" type="line"/>
			<point x="178" y="497" type="line"/>
			<point x="76" y="497" type="line"/>
		</contour>
	</outline>
</glyph>
<glyph name="w" format="2">
	<unicode hex="0077"/>
	<advance width="758"/>
	<outline>
		<contour>
			<point x="118" y="0" type="line"/>
			<point x="222" y="0" type="line"/>
			<point x="425" y="409" type="line"/>
			<point x="397" y="409" type="line"/>
			<point x="428" y="0" type="line"/>
			<point x="532" y="0" type="line"/>
			<point x="780" y="497" type="line"/>
			<point x="682" y="497" type="line"/>
			<point x="474" y="53" type="line"/>
			<point x="503" y="53" type="line"/>
			<point x="474" y="497" type="line"/>
			<point x="386" y="497" type="line"/>
			<point x="169" y="53" type="line"/>
			<point x="201" y="53" type="line"/>
			<point x="181" y="497" type="line"/>
			<point x="83" y="497" type="line"/>
		</contour>
	</outline>
	<anchor name="top.LC" x="428" y="544"/>
</glyph>
<glyph name="z" format="2">
	<unicode hex="007A"/>
	<advance width="479"/>
	<outline>
		<contour>
			<point x="-1" y="0" type="line"/>
			<point x="388" y="0" type="line"/>
			<point x="405" y="82" type="line"/>
			<point x="136" y="82" type="line"/>
			<point x="465" y="414" type="line"/>
			<point x="483" y="497" type="line"/>
			<point x="100" y="497" type="line"/>
			<point x="83" y="414" type="line"/>
			<point x="343" y="414" type="line"/>
			<point x="16" y="83" type="line"/>
		</contour>
	</outline>
	<anchor name="top.LC" x="302" y="544"/>
</glyph>
<glyph name="bar" format="2">
	<unicode hex="007C"/>
	<advance width="255"/>
	<outline>
		<contour>
			<point x="0" y="-129" type="line"/>
			<point x="96" y="-129" type="line"/>
			<point x="279" y="736" type="line"/>
			<point x="183" y="736" type="line"/>
		</contour>
	</outline>
</glyph>
<glyph name="exclamdown" format="2">
	<unicode hex="00A1"/>
	<advance width="238"/>
	<outline>
		<contour>
			<point x="104" y="272" type="line"/>
			<point x="89" y="219"/>
			<point x="21" y="-25"/>
			<point x="-8" y="-133" type="curve" smooth="yes"/>
			<point x="-19" y="-172"/>
			<point x="-23" y="-187"/>
			<point x="-23" y="-197" type="curve" smooth="yes"/>
			<point x="-23" y="-228"/>
			<point x="-4" y="-246"/>
			<point x="27" y="-246" type="curve" smooth="yes"/>
			<point x="45" y="-246"/>
			<point x="60" y="-241"/>
			<point x="70" y="-232" type="curve" smooth="yes"/>
			<point x="85" y="-218"/>
			<point x="91" y="-199"/>
			<point x="97" y="-165" type="curve" smooth="yes"/>
			<point x="106" y="-112"/>
			<point x="157" y="225"/>
			<point x="164" y="272" type="curve"/>
		</contour>
		<contour>
			<point x="96" y="417" type="curve" smooth="yes"/>
			<point x="96" y="383"/>
			<point x="121" y="358"/>
			<point x="154" y="358" type="curve" smooth="yes"/>
			<point x="201" y="358"/>
			<point x="235" y="392"/>
			<point x="235" y="440" type="curve" smooth="yes"/>
			<point x="235" y="474"/>
			<point x="210" y="497"/>
			<point x="176" y="497" type="curve" smooth="yes"/>
			<point x="130" y="497"/>
			<point x="96" y="464"/>
		</contour>
	</outline>
</glyph>
<glyph name="sterling" format="2">
	<unicode hex="00A3"/>
	<advance width="630"/>
	<outline>
		<contour>
			<point x="12" y="0" type="line"/>
			<point x="527" y="0" type="line"/>
			<point x="545" y="84" type="line"/>
			<point x="29" y="84" type="line"/>
		</contour>
		<contour>
			<point x="86" y="311" type="line"/>
			<point x="487" y="311" type="line"/>
			<point x="504" y="393" type="line"/>
			<point x="103" y="393" type="line"/>
		</contour>
		<contour>
			<point x="117" y="43" type="line"/>
			<point x="217" y="43" type="line"/>
			<point x="312" y="491" type="line" smooth="yes"/>
			<point x="334" y="593"/>
			<point x="383" y="644"/>
			<point x="464" y="644" type="curve" smooth="yes"/>
			<point x="522" y="644"/>
			<point x="558" y="618"/>
			<point x="584" y="555" type="curve"/>
			<point x="662" y="611" type="line"/>
			<point x="629" y="690"/>
			<point x="563" y="731"/>
			<point x="472" y="731" type="curve" smooth="yes"/>
			<point x="336" y="731"/>
			<point x="244" y="643"/>
			<point x="211" y="489" type="curve" smooth="yes"/>
		</contour>
	</outline>
	<guideline y="664"/>
	<guideline y="711"/>
</glyph>
<glyph name="currency" format="2">
	<unicode hex="00A4"/>
	<advance width="613"/>
	<outline>
		<contour>
			<point x="304" y="235" type="curve" smooth="yes"/>
			<point x="240" y="235"/>
			<point x="197" y="277"/>
			<point x="197" y="341" type="curve" smooth="yes"/>
			<point x="197" y="434"/>
			<point x="276" y="516"/>
			<point x="364" y="516" type="curve" smooth="yes"/>
			<point x="428" y="516"/>
			<point x="471" y="474"/>
			<point x="471" y="410" type="curve" smooth="yes"/>
			<point x="471" y="317"/>
			<point x="393" y="235"/>
		</contour>
		<contour>
			<point x="84" y="122" type="line"/>
			<point x="175" y="197" type="line"/>
			<point x="204" y="173"/>
			<point x="243" y="160"/>
			<point x="289" y="160" type="curve" smooth="yes"/>
			<point x="334" y="160"/>
			<point x="382" y="175"/>
			<point x="423" y="200" type="curve"/>
			<point x="482" y="127" type="line"/>
			<point x="537" y="172" type="line"/>
			<point x="479" y="245" type="line"/>
			<point x="528" y="298"/>
			<point x="555" y="360"/>
			<point x="555" y="422" type="curve" smooth="yes"/>
			<point x="555" y="452"/>
			<point x="549" y="476"/>
			<point x="537" y="501" type="curve"/>
			<point x="627" y="575" type="line"/>
			<point x="584" y="629" type="line"/>
			<point x="493" y="555" type="line"/>
			<point x="464" y="578"/>
			<point x="425" y="591"/>
			<point x="380" y="591" type="curve" smooth="yes"/>
			<point x="334" y="591"/>
			<point x="286" y="577"/>
			<point x="245" y="551" type="curve"/>
			<point x="186" y="625" type="line"/>
			<point x="131" y="579" type="line"/>
			<point x="189" y="506" type="line"/>
			<point x="140" y="454"/>
			<point x="113" y="391"/>
			<point x="113" y="330" type="curve" smooth="yes"/>
			<point x="113" y="300"/>
			<point x="119" y="275"/>
			<point x="131" y="251" type="curve"/>
			<point x="41" y="177" type="line"/>
		</contour>
	</outline>
	<guideline y="161"/>
	<guideline y="531"/>
</glyph>
<glyph name="brokenbar" format="2">
	<unicode hex="00A6"/>
	<advance width="255"/>
	<outline>
		<contour>
			<point x="0" y="-129" type="line"/>
			<point x="96" y="-129" type="line"/>
			<point x="169" y="217" type="line"/>
			<point x="73" y="217" type="line"/>
		</contour>
		<contour>
			<point x="110" y="390" type="line"/>
			<point x="206" y="390" type="line"/>
			<point x="279" y="736" type="line"/>
			<point x="183" y="736" type="line"/>
		</contour>
	</outline>
</glyph>
<glyph name="copyright" format="2">
	<unicode hex="00A9"/>
	<advance width="832"/>
	<outline>
		<contour>
			<point x="544" y="274" type="line"/>
			<point x="520" y="237"/>
			<point x="485" y="214"/>
			<point x="442" y="214" type="curve" smooth="yes"/>
			<point x="374" y="214"/>
			<point x="323" y="275"/>
			<point x="323" y="358" type="curve" smooth="yes"/>
			<point x="323" y="443"/>
			<point x="374" y="503"/>
			<point x="442" y="503" type="curve" smooth="yes"/>
			<point x="485" y="503"/>
			<point x="520" y="481"/>
			<point x="544" y="444" type="curve"/>
			<point x="595" y="495" type="line"/>
			<point x="561" y="541"/>
			<point x="508" y="572"/>
			<point x="440" y="572" type="curve" smooth="yes"/>
			<point x="325" y="572"/>
			<point x="239" y="483"/>
			<point x="239" y="358" type="curve" smooth="yes"/>
			<point x="239" y="235"/>
			<point x="323" y="145"/>
			<point x="438" y="145" type="curve" smooth="yes"/>
			<point x="506" y="145"/>
			<point x="561" y="175"/>
			<point x="595" y="221" type="curve"/>
		</contour>
		<contour>
			<point x="436" y="-26" type="curve" smooth="yes"/>
			<point x="644" y="-26"/>
			<point x="809" y="144"/>
			<point x="809" y="358" type="curve" smooth="yes"/>
			<point x="809" y="572"/>
			<point x="644" y="742"/>
			<point x="436" y="742" type="curve" smooth="yes"/>
			<point x="228" y="742"/>
			<point x="63" y="572"/>
			<point x="63" y="358" type="curve" smooth="yes"/>
			<point x="63" y="144"/>
			<point x="228" y="-26"/>
		</contour>
		<contour>
			<point x="436" y="45" type="curve" smooth="yes"/>
			<point x="270" y="45"/>
			<point x="135" y="183"/>
			<point x="135" y="358" type="curve" smooth="yes"/>
			<point x="135" y="533"/>
			<point x="270" y="671"/>
			<point x="436" y="671" type="curve" smooth="yes"/>
			<point x="602" y="671"/>
			<point x="737" y="533"/>
			<point x="737" y="358" type="curve" smooth="yes"/>
			<point x="737" y="183"/>
			<point x="602" y="45"/>
		</contour>
	</outline>
</glyph>
<glyph name="micro" format="2">
	<unicode hex="00B5"/>
	<advance width="632"/>
	<outline>
		<contour>
			<point x="7" y="-194" type="line"/>
			<point x="153" y="497" type="line"/>
			<point x="253" y="497" type="line"/>
			<point x="194" y="214" type="line" smooth="yes"/>
			<point x="189" y="188"/>
			<point x="185" y="164"/>
			<point x="185" y="149" type="curve" smooth="yes"/>
			<point x="185" y="99"/>
			<point x="212" y="69"/>
			<point x="257" y="69" type="curve" smooth="yes"/>
			<point x="348" y="69"/>
			<point x="409" y="158"/>
			<point x="448" y="339" type="curve" smooth="yes"/>
			<point x="482" y="497" type="line"/>
			<point x="582" y="497" type="line"/>
			<point x="477" y="0" type="line"/>
			<point x="378" y="0" type="line"/>
			<point x="410" y="153" type="line"/>
			<point x="442" y="205" type="line"/>
			<point x="411" y="67"/>
			<point x="326" y="-16"/>
			<point x="233" y="-16" type="curve" smooth="yes"/>
			<point x="168" y="-16"/>
			<point x="123" y="19"/>
			<point x="130" y="79" type="curve"/>
			<point x="167" y="91" type="line"/>
			<point x="107" y="-194" type="line"/>
		</contour>
	</outline>
</glyph>
<glyph name="paragraph" format="2">
	<unicode hex="00B6"/>
	<advance width="585"/>
	<outline>
		<contour>
			<point x="149" y="-130" type="line"/>
			<point x="242" y="-130" type="line"/>
			<point x="402" y="629" type="line"/>
			<point x="501" y="629" type="line"/>
			<point x="340" y="-130" type="line"/>
			<point x="433" y="-130" type="line"/>
			<point x="612" y="715" type="line"/>
			<point x="369" y="715" type="line" smooth="yes"/>
			<point x="205" y="715"/>
			<point x="80" y="597"/>
			<point x="80" y="448" type="curve" smooth="yes"/>
			<point x="80" y="358"/>
			<point x="139" y="294"/>
			<point x="237" y="285" type="curve"/>
		</contour>
	</outline>
</glyph>
<glyph name="ordmasculine" format="2">
	<unicode hex="00BA"/>
	<advance width="463"/>
	<outline>
		<contour>
			<point x="260" y="300" type="curve" smooth="yes"/>
			<point x="394" y="300"/>
			<point x="487" y="418"/>
			<point x="487" y="542" type="curve" smooth="yes"/>
			<point x="487" y="657"/>
			<point x="407" y="715"/>
			<point x="312" y="715" type="curve" smooth="yes"/>
			<point x="179" y="715"/>
			<point x="86" y="597"/>
			<point x="86" y="473" type="curve" smooth="yes"/>
			<point x="86" y="358"/>
			<point x="166" y="300"/>
		</contour>
		<contour>
			<point x="263" y="374" type="curve" smooth="yes"/>
			<point x="206" y="374"/>
			<point x="179" y="422"/>
			<point x="179" y="477" type="curve" smooth="yes"/>
			<point x="179" y="555"/>
			<point x="230" y="641"/>
			<point x="310" y="641" type="curve" smooth="yes"/>
			<point x="367" y="641"/>
			<point x="394" y="594"/>
			<point x="394" y="539" type="curve" smooth="yes"/>
			<point x="394" y="460"/>
			<point x="343" y="374"/>
		</contour>
	</outline>
</glyph>
<glyph name="questiondown" format="2">
	<unicode hex="00BF"/>
	<advance width="567"/>
	<outline>
		<contour>
			<point x="394" y="-46" type="line"/>
			<point x="338" y="-119"/>
			<point x="274" y="-159"/>
			<point x="212" y="-159" type="curve" smooth="yes"/>
			<point x="146" y="-159"/>
			<point x="106" y="-121"/>
			<point x="106" y="-66" type="curve" smooth="yes"/>
			<point x="106" y="-15"/>
			<point x="138" y="25"/>
			<point x="207" y="62" type="curve" smooth="yes"/>
			<point x="312" y="119"/>
			<point x="340" y="166"/>
			<point x="353" y="272" type="curve"/>
			<point x="279" y="272" type="line"/>
			<point x="265" y="203"/>
			<point x="238" y="168"/>
			<point x="170" y="130" type="curve" smooth="yes"/>
			<point x="58" y="67"/>
			<point x="7" y="4"/>
			<point x="7" y="-79" type="curve" smooth="yes"/>
			<point x="7" y="-172"/>
			<point x="87" y="-246"/>
			<point x="201" y="-246" type="curve" smooth="yes"/>
			<point x="298" y="-246"/>
			<point x="380" y="-203"/>
			<point x="455" y="-113" type="curve"/>
		</contour>
		<contour>
			<point x="272" y="417" type="curve" smooth="yes"/>
			<point x="272" y="383"/>
			<point x="297" y="358"/>
			<point x="331" y="358" type="curve" smooth="yes"/>
			<point x="378" y="358"/>
			<point x="411" y="392"/>
			<point x="411" y="440" type="curve" smooth="yes"/>
			<point x="411" y="474"/>
			<point x="386" y="497"/>
			<point x="353" y="497" type="curve" smooth="yes"/>
			<point x="305" y="497"/>
			<point x="272" y="464"/>
		</contour>
	</outline>
</glyph>
<glyph name="AE" format="2">
	<unicode hex="00C6"/>
	<advance width="1001"/>
	<outline>
		<contour>
			<point x="-25" y="0" type="line"/>
			<point x="91" y="0" type="line"/>
			<point x="659" y="715" type="line"/>
			<point x="552" y="715" type="line"/>
		</contour>
		<contour>
			<point x="200" y="181" type="line"/>
			<point x="531" y="181" type="line"/>
			<point x="549" y="269" type="line"/>
			<point x="219" y="269" type="line"/>
		</contour>
		<contour>
			<point x="450" y="0" type="line"/>
			<point x="914" y="0" type="line"/>
			<point x="933" y="89" type="line"/>
			<point x="572" y="89" type="line"/>
			<point x="686" y="626" type="line"/>
			<point x="1033" y="626" type="line"/>
			<point x="1052" y="715" type="line"/>
			<point x="601" y="715" type="line"/>
		</contour>
		<contour>
			<point x="610" y="320" type="line"/>
			<point x="950" y="320" type="line"/>
			<point x="969" y="409" type="line"/>
			<point x="629" y="409" type="line"/>
		</contour>
	</outline>
</glyph>
<glyph name="germandbls" format="2">
	<unicode hex="00DF"/>
	<advance width="615"/>
	<outline>
		<contour>
			<point x="20" y="0" type="line"/>
			<point x="120" y="0" type="line"/>
			<point x="217" y="454" type="line" smooth="yes"/>
			<point x="245" y="587"/>
			<point x="300" y="648"/>
			<point x="388" y="648" type="curve" smooth="yes"/>
			<point x="448" y="648"/>
			<point x="480" y="618"/>
			<point x="480" y="561" type="curve" smooth="yes"/>
			<point x="480" y="482"/>
			<point x="413" y="415"/>
			<point x="334" y="415" type="curve" smooth="yes"/>
			<point x="313" y="415" type="line"/>
			<point x="295" y="332" type="line"/>
			<point x="337" y="332" type="line" smooth="yes"/>
			<point x="410" y="332"/>
			<point x="459" y="285"/>
			<point x="459" y="217" type="curve" smooth="yes"/>
			<point x="459" y="130"/>
			<point x="403" y="65"/>
			<point x="328" y="65" type="curve" smooth="yes"/>
			<point x="292" y="65"/>
			<point x="261" y="80"/>
			<point x="237" y="107" type="curve"/>
			<point x="181" y="40" type="line"/>
			<point x="216" y="3"/>
			<point x="263" y="-16"/>
			<point x="326" y="-16" type="curve" smooth="yes"/>
			<point x="463" y="-16"/>
			<point x="563" y="85"/>
			<point x="563" y="223" type="curve" smooth="yes"/>
			<point x="563" y="329"/>
			<point x="484" y="400"/>
			<point x="364" y="400" type="curve" smooth="yes"/>
			<point x="329" y="400" type="line"/>
			<point x="319" y="356" type="line"/>
			<point x="322" y="356" type="line" smooth="yes"/>
			<point x="469" y="356"/>
			<point x="583" y="452"/>
			<point x="583" y="575" type="curve" smooth="yes"/>
			<point x="583" y="671"/>
			<point x="514" y="731"/>
			<point x="401" y="731" type="curve" smooth="yes"/>
			<point x="255" y="731"/>
			<point x="155" y="636"/>
			<point x="119" y="466" type="curve" smooth="yes"/>
		</contour>
	</outline>
</glyph>
<glyph name="ae" format="2">
	<unicode hex="00E6"/>
	<advance width="901"/>
	<outline>
		<contour>
			<point x="140" y="360" type="line"/>
			<point x="181" y="407"/>
			<point x="238" y="432"/>
			<point x="298" y="432" type="curve" smooth="yes"/>
			<point x="376" y="432"/>
			<point x="411" y="389"/>
			<point x="391" y="291" type="curve" smooth="yes"/>
			<point x="386" y="266" type="line"/>
			<point x="467" y="262" type="line"/>
			<point x="472" y="285" type="line" smooth="yes"/>
			<point x="499" y="428"/>
			<point x="438" y="513"/>
			<point x="305" y="513" type="curve" smooth="yes"/>
			<point x="222" y="513"/>
			<point x="139" y="480"/>
			<point x="86" y="425" type="curve"/>
		</contour>
		<contour>
			<point x="269" y="294" type="line" smooth="yes"/>
			<point x="115" y="294"/>
			<point x="15" y="229"/>
			<point x="15" y="129" type="curve" smooth="yes"/>
			<point x="15" y="42"/>
			<point x="83" y="-16"/>
			<point x="184" y="-16" type="curve" smooth="yes"/>
			<point x="317" y="-16"/>
			<point x="417" y="80"/>
			<point x="446" y="234" type="curve"/>
			<point x="386" y="252" type="line"/>
			<point x="359" y="136"/>
			<point x="289" y="62"/>
			<point x="205" y="62" type="curve" smooth="yes"/>
			<point x="152" y="62"/>
			<point x="119" y="90"/>
			<point x="119" y="134" type="curve" smooth="yes"/>
			<point x="119" y="189"/>
			<point x="176" y="223"/>
			<point x="267" y="223" type="curve" smooth="yes"/>
			<point x="405" y="223" type="line"/>
			<point x="422" y="294" type="line"/>
		</contour>
		<contour>
			<point x="772" y="148" type="line"/>
			<point x="731" y="95"/>
			<point x="677" y="67"/>
			<point x="618" y="67" type="curve" smooth="yes"/>
			<point x="534" y="67"/>
			<point x="482" y="120"/>
			<point x="482" y="202" type="curve" smooth="yes"/>
			<point x="482" y="335"/>
			<point x="560" y="430"/>
			<point x="670" y="430" type="curve" smooth="yes"/>
			<point x="725" y="430"/>
			<point x="764" y="400"/>
			<point x="764" y="357" type="curve" smooth="yes"/>
			<point x="764" y="315"/>
			<point x="727" y="293"/>
			<point x="658" y="293" type="curve" smooth="yes"/>
			<point x="452" y="293" type="line"/>
			<point x="452" y="220" type="line"/>
			<point x="664" y="220" type="line" smooth="yes"/>
			<point x="789" y="220"/>
			<point x="862" y="272"/>
			<point x="862" y="359" type="curve" smooth="yes"/>
			<point x="862" y="450"/>
			<point x="784" y="513"/>
			<point x="672" y="513" type="curve" smooth="yes"/>
			<point x="518" y="513"/>
			<point x="395" y="374"/>
			<point x="395" y="203" type="curve" smooth="yes"/>
			<point x="395" y="68"/>
			<point x="479" y="-16"/>
			<point x="613" y="-16" type="curve" smooth="yes"/>
			<point x="699" y="-16"/>
			<point x="769" y="16"/>
			<point x="827" y="81" type="curve"/>
		</contour>
	</outline>
	<guideline y="23"/>
	<guideline y="96"/>
</glyph>
<glyph name="eth" format="2">
	<unicode hex="00F0"/>
	<advance width="604"/>
	<outline>
		<contour>
			<point x="474" y="234" type="line"/>
			<point x="481" y="267"/>
			<point x="485" y="297"/>
			<point x="485" y="323" type="curve" smooth="yes"/>
			<point x="485" y="428"/>
			<point x="418" y="488"/>
			<point x="313" y="488" type="curve" smooth="yes"/>
			<point x="163" y="488"/>
			<point x="42" y="353"/>
			<point x="42" y="185" type="curve" smooth="yes"/>
			<point x="42" y="64"/>
			<point x="123" y="-16"/>
			<point x="246" y="-16" type="curve" smooth="yes"/>
			<point x="431" y="-16"/>
			<point x="566" y="156"/>
			<point x="566" y="392" type="curve" smooth="yes"/>
			<point x="566" y="550"/>
			<point x="495" y="681"/>
			<point x="366" y="765" type="curve"/>
			<point x="280" y="732" type="line"/>
			<point x="412" y="634"/>
			<point x="472" y="521"/>
			<point x="472" y="374" type="curve" smooth="yes"/>
			<point x="472" y="329"/>
			<point x="467" y="282"/>
			<point x="457" y="235" type="curve"/>
		</contour>
		<contour>
			<point x="263" y="69" type="curve" smooth="yes"/>
			<point x="189" y="69"/>
			<point x="145" y="116"/>
			<point x="145" y="192" type="curve" smooth="yes"/>
			<point x="145" y="315"/>
			<point x="220" y="406"/>
			<point x="321" y="406" type="curve" smooth="yes"/>
			<point x="398" y="406"/>
			<point x="447" y="357"/>
			<point x="447" y="281" type="curve" smooth="yes"/>
			<point x="447" y="167"/>
			<point x="361" y="69"/>
		</contour>
		<contour>
			<point x="279" y="539" type="line"/>
			<point x="592" y="674" type="line"/>
			<point x="566" y="740" type="line"/>
			<point x="250" y="603" type="line"/>
		</contour>
	</outline>
</glyph>
<glyph name="divide" format="2">
	<unicode hex="00F7"/>
	<advance width="631"/>
	<outline>
		<contour>
			<point x="120" y="317" type="line"/>
			<point x="542" y="317" type="line"/>
			<point x="559" y="399" type="line"/>
			<point x="137" y="399" type="line"/>
		</contour>
		<contour>
			<point x="310" y="512" type="curve" smooth="yes"/>
			<point x="310" y="481"/>
			<point x="331" y="460"/>
			<point x="361" y="460" type="curve" smooth="yes"/>
			<point x="403" y="460"/>
			<point x="439" y="498"/>
			<point x="439" y="535" type="curve" smooth="yes"/>
			<point x="439" y="566"/>
			<point x="418" y="587"/>
			<point x="388" y="587" type="curve" smooth="yes"/>
			<point x="346" y="587"/>
			<point x="310" y="550"/>
		</contour>
		<contour>
			<point x="239" y="179" type="curve"/>
			<point x="239" y="148"/>
			<point x="260" y="127"/>
			<point x="290" y="127" type="curve" smooth="yes"/>
			<point x="332" y="127"/>
			<point x="368" y="165"/>
			<point x="368" y="202" type="curve" smooth="yes"/>
			<point x="368" y="233"/>
			<point x="347" y="254"/>
			<point x="317" y="254" type="curve" smooth="yes"/>
			<point x="275" y="254"/>
			<point x="239" y="217"/>
		</contour>
	</outline>
</glyph>
<glyph name="thorn" format="2">
	<unicode hex="00FE"/>
	<advance width="623"/>
	<outline>
		<contour>
			<point x="-14" y="-194" type="line"/>
			<point x="86" y="-194" type="line"/>
			<point x="161" y="159" type="line" smooth="yes"/>
			<point x="198" y="334"/>
			<point x="269" y="428"/>
			<point x="361" y="428" type="curve" smooth="yes"/>
			<point x="434" y="428"/>
			<point x="476" y="377"/>
			<point x="476" y="293" type="curve" smooth="yes"/>
			<point x="476" y="167"/>
			<point x="396" y="69"/>
			<point x="296" y="69" type="curve" smooth="yes"/>
			<point x="222" y="69"/>
			<point x="158" y="121"/>
			<point x="151" y="187" type="curve"/>
			<point x="116" y="146" type="line"/>
			<point x="125" y="50"/>
			<point x="202" y="-16"/>
			<point x="306" y="-16" type="curve" smooth="yes"/>
			<point x="457" y="-16"/>
			<point x="581" y="124"/>
			<point x="581" y="300" type="curve" smooth="yes"/>
			<point x="581" y="428"/>
			<point x="511" y="513"/>
			<point x="396" y="513" type="curve" smooth="yes"/>
			<point x="305" y="513"/>
			<point x="231" y="457"/>
			<point x="187" y="351" type="curve"/>
			<point x="201" y="354" type="line"/>
			<point x="279" y="720" type="line"/>
			<point x="180" y="720" type="line"/>
		</contour>
	</outline>
</glyph>
<glyph name="dcroat" format="2">
	<unicode hex="0111"/>
	<advance width="623"/>
	<outline>
		<contour>
			<point x="364" y="564" type="line"/>
			<point x="682" y="564" type="line"/>
			<point x="698" y="641" type="line"/>
			<point x="380" y="641" type="line"/>
		</contour>
		<contour>
			<point x="392" y="0" type="line"/>
			<point x="490" y="0" type="line"/>
			<point x="642" y="720" type="line"/>
			<point x="543" y="720" type="line"/>
			<point x="461" y="330" type="line"/>
			<point x="487" y="343" type="line"/>
			<point x="482" y="445"/>
			<point x="421" y="505"/>
			<point x="319" y="505" type="curve" smooth="yes"/>
			<point x="168" y="505"/>
			<point x="42" y="366"/>
			<point x="42" y="199" type="curve" smooth="yes"/>
			<point x="42" y="67"/>
			<point x="115" y="-16"/>
			<point x="230" y="-16" type="curve" smooth="yes"/>
			<point x="343" y="-16"/>
			<point x="425" y="69"/>
			<point x="467" y="230" type="curve"/>
			<point x="445" y="262" type="line"/>
			<point x="409" y="143"/>
			<point x="337" y="67"/>
			<point x="259" y="67" type="curve" smooth="yes"/>
			<point x="189" y="67"/>
			<point x="147" y="117"/>
			<point x="147" y="201" type="curve" smooth="yes"/>
			<point x="147" y="323"/>
			<point x="227" y="421"/>
			<point x="325" y="421" type="curve" smooth="yes"/>
			<point x="398" y="421"/>
			<point x="442" y="370"/>
			<point x="442" y="283" type="curve" smooth="yes"/>
			<point x="442" y="254"/>
			<point x="439" y="230"/>
			<point x="433" y="201" type="curve" smooth="yes"/>
		</contour>
	</outline>
	<guideline y="67"/>
</glyph>
<glyph name="Hbar" format="2">
	<unicode hex="0126"/>
	<advance width="741"/>
	<outline>
		<contour>
			<point x="96" y="523" type="line"/>
			<point x="762" y="523" type="line"/>
			<point x="780" y="608" type="line"/>
			<point x="113" y="608" type="line"/>
		</contour>
		<contour>
			<point x="490" y="0" type="line"/>
			<point x="593" y="0" type="line"/>
			<point x="744" y="715" type="line"/>
			<point x="641" y="715" type="line"/>
		</contour>
		<contour>
			<point x="46" y="0" type="line"/>
			<point x="149" y="0" type="line"/>
			<point x="300" y="715" type="line"/>
			<point x="197" y="715" type="line"/>
		</contour>
		<contour>
			<point x="208" y="325" type="line"/>
			<point x="568" y="325" type="line"/>
			<point x="587" y="415" type="line"/>
			<point x="227" y="415" type="line"/>
		</contour>
	</outline>
</glyph>
<glyph name="hbar" format="2">
	<unicode hex="0127"/>
	<advance width="587"/>
	<outline>
		<contour>
			<point x="78" y="564" type="line"/>
			<point x="397" y="564" type="line"/>
			<point x="413" y="641" type="line"/>
			<point x="95" y="641" type="line"/>
		</contour>
		<contour>
			<point x="33" y="0" type="line"/>
			<point x="132" y="0" type="line"/>
			<point x="165" y="152" type="line" smooth="yes"/>
			<point x="202" y="329"/>
			<point x="265" y="419"/>
			<point x="356" y="419" type="curve" smooth="yes"/>
			<point x="405" y="419"/>
			<point x="433" y="389"/>
			<point x="433" y="340" type="curve" smooth="yes"/>
			<point x="433" y="324"/>
			<point x="430" y="297"/>
			<point x="425" y="275" type="curve" smooth="yes"/>
			<point x="367" y="0" type="line"/>
			<point x="467" y="0" type="line"/>
			<point x="525" y="273" type="line" smooth="yes"/>
			<point x="531" y="303"/>
			<point x="535" y="330"/>
			<point x="535" y="353" type="curve" smooth="yes"/>
			<point x="535" y="448"/>
			<point x="480" y="505"/>
			<point x="390" y="505" type="curve" smooth="yes"/>
			<point x="292" y="505"/>
			<point x="203" y="419"/>
			<point x="171" y="284" type="curve"/>
			<point x="204" y="336" type="line"/>
			<point x="286" y="720" type="line"/>
			<point x="186" y="720" type="line"/>
		</contour>
	</outline>
</glyph>
<glyph name="dotlessi" format="2">
	<unicode hex="0131"/>
	<advance width="248"/>
	<outline>
		<contour>
			<point x="25" y="0" type="line"/>
			<point x="125" y="0" type="line"/>
			<point x="230" y="497" type="line"/>
			<point x="130" y="497" type="line"/>
		</contour>
	</outline>
	<anchor name="top.LC" x="192" y="544"/>
</glyph>
<glyph name="kgreenlandic" format="2">
	<unicode hex="0138"/>
	<advance width="556"/>
	<outline>
		<contour>
			<point x="27" y="0" type="line"/>
			<point x="126" y="0" type="line"/>
			<point x="231" y="497" type="line"/>
			<point x="132" y="497" type="line"/>
		</contour>
		<contour>
			<point x="360" y="0" type="line"/>
			<point x="490" y="0" type="line"/>
			<point x="273" y="267" type="line"/>
			<point x="269" y="245" type="line"/>
			<point x="573" y="497" type="line"/>
			<point x="447" y="497" type="line"/>
			<point x="164" y="258" type="line"/>
			<point x="154" y="258" type="line"/>
		</contour>
	</outline>
</glyph>
<glyph name="lslash" format="2">
	<unicode hex="0142"/>
	<advance width="312"/>
	<outline>
		<contour>
			<point x="45" y="253" type="line"/>
			<point x="348" y="433" type="line"/>
			<point x="322" y="500" type="line"/>
			<point x="19" y="320" type="line"/>
		</contour>
		<contour>
			<point x="77" y="151" type="line" smooth="yes"/>
			<point x="72" y="129"/>
			<point x="70" y="111"/>
			<point x="70" y="97" type="curve" smooth="yes"/>
			<point x="70" y="31"/>
			<point x="108" y="0"/>
			<point x="183" y="0" type="curve" smooth="yes"/>
			<point x="242" y="0" type="line"/>
			<point x="260" y="85" type="line"/>
			<point x="208" y="85" type="line" smooth="yes"/>
			<point x="183" y="85"/>
			<point x="173" y="96"/>
			<point x="173" y="118" type="curve" smooth="yes"/>
			<point x="173" y="129"/>
			<point x="174" y="137"/>
			<point x="178" y="155" type="curve" smooth="yes"/>
			<point x="298" y="720" type="line"/>
			<point x="198" y="720" type="line"/>
		</contour>
	</outline>
</glyph>
<glyph name="Eng" format="2">
	<unicode hex="014A"/>
	<advance width="755"/>
	<outline>
		<contour>
			<point x="167" y="-142" type="line"/>
			<point x="199" y="-183"/>
			<point x="259" y="-204"/>
			<point x="327" y="-204" type="curve" smooth="yes"/>
			<point x="487" y="-204"/>
			<point x="579" y="-110"/>
			<point x="618" y="78" type="curve" smooth="yes"/>
			<point x="753" y="715" type="line"/>
			<point x="653" y="715" type="line"/>
			<point x="518" y="76" type="line" smooth="yes"/>
			<point x="491" y="-50"/>
			<point x="431" y="-111"/>
			<point x="340" y="-111" type="curve" smooth="yes"/>
			<point x="287" y="-111"/>
			<point x="256" y="-96"/>
			<point x="233" y="-70" type="curve"/>
		</contour>
		<contour>
			<point x="46" y="0" type="line"/>
			<point x="146" y="0" type="line"/>
			<point x="275" y="608" type="line"/>
			<point x="247" y="608" type="line"/>
			<point x="501" y="-20" type="line"/>
			<point x="554" y="99" type="line"/>
			<point x="306" y="715" type="line"/>
			<point x="197" y="715" type="line"/>
		</contour>
	</outline>
</glyph>
<glyph name="OE" format="2">
	<unicode hex="0152"/>
	<advance width="1149"/>
	<outline>
		<contour>
			<point x="353" y="-16" type="curve" smooth="yes"/>
			<point x="547" y="-16"/>
			<point x="708" y="146"/>
			<point x="753" y="358" type="curve" smooth="yes"/>
			<point x="760" y="394"/>
			<point x="763" y="426"/>
			<point x="763" y="454" type="curve" smooth="yes"/>
			<point x="763" y="619"/>
			<point x="669" y="731"/>
			<point x="493" y="731" type="curve" smooth="yes"/>
			<point x="252" y="731"/>
			<point x="74" y="511"/>
			<point x="74" y="272" type="curve" smooth="yes"/>
			<point x="74" y="101"/>
			<point x="183" y="-16"/>
		</contour>
		<contour>
			<point x="372" y="77" type="curve" smooth="yes"/>
			<point x="255" y="77"/>
			<point x="181" y="160"/>
			<point x="181" y="281" type="curve" smooth="yes"/>
			<point x="181" y="470"/>
			<point x="304" y="638"/>
			<point x="486" y="638" type="curve" smooth="yes"/>
			<point x="611" y="638"/>
			<point x="681" y="557"/>
			<point x="681" y="433" type="curve" smooth="yes"/>
			<point x="681" y="409"/>
			<point x="679" y="385"/>
			<point x="673" y="358" type="curve" smooth="yes"/>
			<point x="638" y="195"/>
			<point x="515" y="77"/>
		</contour>
		<contour>
			<point x="599" y="0" type="line"/>
			<point x="1063" y="0" type="line"/>
			<point x="1082" y="89" type="line"/>
			<point x="721" y="89" type="line"/>
			<point x="835" y="626" type="line"/>
			<point x="1182" y="626" type="line"/>
			<point x="1201" y="715" type="line"/>
			<point x="750" y="715" type="line"/>
		</contour>
		<contour>
			<point x="760" y="320" type="line"/>
			<point x="1099" y="320" type="line"/>
			<point x="1118" y="409" type="line"/>
			<point x="779" y="409" type="line"/>
		</contour>
	</outline>
	<guideline y="197"/>
</glyph>
<glyph name="Tbar" format="2">
	<unicode hex="0166"/>
	<advance width="596"/>
	<outline>
		<contour>
			<point x="119" y="320" type="line"/>
			<point x="508" y="320" type="line"/>
			<point x="526" y="408" type="line"/>
			<point x="138" y="408" type="line"/>
		</contour>
		<contour>
			<point x="195" y="0" type="line"/>
			<point x="298" y="0" type="line"/>
			<point x="432" y="635" type="line"/>
			<point x="329" y="635" type="line"/>
		</contour>
		<contour>
			<point x="116" y="625" type="line"/>
			<point x="641" y="625" type="line"/>
			<point x="660" y="715" type="line"/>
			<point x="135" y="715" type="line"/>
		</contour>
	</outline>
</glyph>
<glyph name="tbar" format="2">
	<unicode hex="0167"/>
	<advance width="373"/>
	<outline>
		<contour>
			<point x="67" y="413" type="line"/>
			<point x="365" y="413" type="line"/>
			<point x="383" y="497" type="line"/>
			<point x="85" y="497" type="line"/>
		</contour>
		<contour>
			<point x="29" y="235" type="line"/>
			<point x="327" y="235" type="line"/>
			<point x="344" y="314" type="line"/>
			<point x="46" y="314" type="line"/>
		</contour>
		<contour>
			<point x="98" y="162" type="line" smooth="yes"/>
			<point x="93" y="138"/>
			<point x="90" y="117"/>
			<point x="90" y="101" type="curve" smooth="yes"/>
			<point x="90" y="33"/>
			<point x="127" y="0"/>
			<point x="210" y="0" type="curve" smooth="yes"/>
			<point x="290" y="0" type="line"/>
			<point x="308" y="85" type="line"/>
			<point x="236" y="85" type="line" smooth="yes"/>
			<point x="203" y="85"/>
			<point x="192" y="95"/>
			<point x="192" y="122" type="curve" smooth="yes"/>
			<point x="192" y="131"/>
			<point x="194" y="142"/>
			<point x="197" y="158" type="curve" smooth="yes"/>
			<point x="299" y="636" type="line"/>
			<point x="199" y="636" type="line"/>
		</contour>
	</outline>
</glyph>
<glyph name="acutecomb" format="2">
	<unicode hex="0301"/>
	<outline>
		<contour>
			<point x="-74" y="587" type="line"/>
			<point x="12" y="587" type="line"/>
			<point x="184" y="761" type="line"/>
			<point x="65" y="761" type="line"/>
		</contour>
	</outline>
	<anchor name="_top.LC" x="0" y="544"/>
</glyph>
<glyph name="circumflexcomb" format="2">
	<unicode hex="0302"/>
	<outline>
		<contour>
			<point x="-154" y="587" type="line"/>
			<point x="-66" y="587" type="line"/>
			<point x="84" y="745" type="line"/>
			<point x="6" y="745" type="line"/>
			<point x="89" y="587" type="line"/>
			<point x="176" y="587" type="line"/>
			<point x="97" y="761" type="line"/>
			<point x="0" y="761" type="line"/>
		</contour>
	</outline>
	<anchor name="_top.LC" x="0" y="544"/>
</glyph>
<glyph name="tildecomb" format="2">
	<unicode hex="0303"/>
	<outline>
		<contour>
			<point x="-47" y="727" type="curve" smooth="yes"/>
			<point x="-96" y="727"/>
			<point x="-134" y="693"/>
			<point x="-159" y="628" type="curve"/>
			<point x="-100" y="595" type="line"/>
			<point x="-86" y="633"/>
			<point x="-69" y="654"/>
			<point x="-52" y="654" type="curve" smooth="yes"/>
			<point x="-40" y="654"/>
			<point x="-33" y="650"/>
			<point x="-10" y="628" type="curve" smooth="yes"/>
			<point x="18" y="601"/>
			<point x="41" y="591"/>
			<point x="71" y="591" type="curve" smooth="yes"/>
			<point x="120" y="591"/>
			<point x="158" y="625"/>
			<point x="183" y="690" type="curve"/>
			<point x="124" y="723" type="line"/>
			<point x="109" y="685"/>
			<point x="93" y="664"/>
			<point x="75" y="664" type="curve" smooth="yes"/>
			<point x="65" y="664"/>
			<point x="58" y="668"/>
			<point x="35" y="689" type="curve" smooth="yes"/>
			<point x="6" y="716"/>
			<point x="-17" y="727"/>
		</contour>
	</outline>
	<anchor name="_top.LC" x="0" y="544"/>
</glyph>
<glyph name="dotaccentcomb" format="2">
	<unicode hex="0307"/>
	<outline>
		<contour>
			<point x="15" y="610" type="curve" smooth="yes"/>
			<point x="60" y="610"/>
			<point x="92" y="645"/>
			<point x="92" y="687" type="curve" smooth="yes"/>
			<point x="92" y="715"/>
			<point x="71" y="736"/>
			<point x="41" y="736" type="curve" smooth="yes"/>
			<point x="-3" y="736"/>
			<point x="-35" y="702"/>
			<point x="-35" y="660" type="curve" smooth="yes"/>
			<point x="-35" y="631"/>
			<point x="-15" y="610"/>
		</contour>
	</outline>
	<anchor name="_top.LC" x="0" y="544"/>
</glyph>
<glyph name="caroncomb" format="2">
	<unicode hex="030C"/>
	<outline>
		<contour>
			<point x="-42" y="587" type="line"/>
			<point x="55" y="587" type="line"/>
			<point x="209" y="761" type="line"/>
			<point x="121" y="761" type="line"/>
			<point x="-30" y="603" type="line"/>
			<point x="49" y="603" type="line"/>
			<point x="-34" y="761" type="line"/>
			<point x="-122" y="761" type="line"/>
		</contour>
	</outline>
	<anchor name="_top.LC" x="0" y="544"/>
</glyph>
<glyph name="commaturnedabovecomb" format="2">
	<unicode hex="0312"/>
	<outline>
		<contour>
			<point x="14" y="663" type="line"/>
			<point x="19" y="691"/>
			<point x="46" y="735"/>
			<point x="81" y="773" type="curve"/>
			<point x="25" y="773" type="line"/>
			<point x="-32" y="713"/>
			<point x="-60" y="666"/>
			<point x="-60" y="626" type="curve" smooth="yes"/>
			<point x="-60" y="598"/>
			<point x="-41" y="578"/>
			<point x="-13" y="578" type="curve" smooth="yes"/>
			<point x="22" y="578"/>
			<point x="47" y="602"/>
			<point x="47" y="637" type="curve" smooth="yes"/>
			<point x="47" y="665"/>
			<point x="29" y="683"/>
			<point x="1" y="683" type="curve"/>
		</contour>
	</outline>
	<anchor name="_top.LC" x="0" y="544"/>
</glyph>
<glyph name="commabelowcomb" format="2">
	<unicode hex="0326"/>
	<outline>
		<contour>
			<point x="-47" y="-280" type="line"/>
			<point x="11" y="-218"/>
			<point x="38" y="-171"/>
			<point x="38" y="-134" type="curve" smooth="yes"/>
			<point x="38" y="-104"/>
			<point x="18" y="-85"/>
			<point x="-9" y="-85" type="curve" smooth="yes"/>
			<point x="-45" y="-85"/>
			<point x="-69" y="-110"/>
			<point x="-69" y="-147" type="curve" smooth="yes"/>
			<point x="-69" y="-173"/>
			<point x="-51" y="-190"/>
			<point x="-24" y="-190" type="curve"/>
			<point x="-37" y="-170" type="line"/>
			<point x="-40" y="-197"/>
			<point x="-67" y="-241"/>
			<point x="-102" y="-280" type="curve"/>
		</contour>
	</outline>
	<anchor name="_bottom.LC" x="0" y="-50"/>
</glyph>
<glyph name="ogonekcomb" format="2">
	<unicode hex="0328"/>
	<outline>
		<contour>
			<point x="56" y="-172" type="line"/>
			<point x="44" y="-174"/>
			<point x="33" y="-175"/>
			<point x="27" y="-175" type="curve" smooth="yes"/>
			<point x="-3" y="-175"/>
			<point x="-22" y="-161"/>
			<point x="-22" y="-134" type="curve" smooth="yes"/>
			<point x="-22" y="-76"/>
			<point x="38" y="-30"/>
			<point x="92" y="0" type="curve"/>
			<point x="39" y="22" type="line"/>
			<point x="-45" y="-27"/>
			<point x="-106" y="-86"/>
			<point x="-106" y="-165" type="curve" smooth="yes"/>
			<point x="-106" y="-219"/>
			<point x="-66" y="-249"/>
			<point x="-2" y="-249" type="curve" smooth="yes"/>
			<point x="13" y="-249"/>
			<point x="26" y="-248"/>
			<point x="40" y="-245" type="curve"/>
		</contour>
	</outline>
	<anchor name="_ogonek.LC" x="0" y="-30"/>
</glyph>
<glyph name="Germandbls" format="2">
	<unicode hex="1E9E"/>
	<advance width="738"/>
	<outline>
		<contour>
			<point x="33" y="0" type="line"/>
			<point x="137" y="0" type="line"/>
			<point x="225" y="417" type="line" smooth="yes"/>
			<point x="254" y="553"/>
			<point x="336" y="629"/>
			<point x="454" y="629" type="curve" smooth="yes"/>
			<point x="685" y="629" type="line"/>
			<point x="657" y="666" type="line"/>
			<point x="354" y="372" type="line"/>
			<point x="402" y="319" type="line"/>
			<point x="431" y="339"/>
			<point x="459" y="349"/>
			<point x="492" y="349" type="curve" smooth="yes"/>
			<point x="562" y="349"/>
			<point x="604" y="310"/>
			<point x="604" y="244" type="curve" smooth="yes"/>
			<point x="604" y="140"/>
			<point x="533" y="70"/>
			<point x="424" y="70" type="curve" smooth="yes"/>
			<point x="367" y="70"/>
			<point x="325" y="91"/>
			<point x="287" y="140" type="curve"/>
			<point x="213" y="72" type="line"/>
			<point x="257" y="15"/>
			<point x="331" y="-16"/>
			<point x="422" y="-16" type="curve" smooth="yes"/>
			<point x="589" y="-16"/>
			<point x="707" y="97"/>
			<point x="707" y="250" type="curve" smooth="yes"/>
			<point x="707" y="353"/>
			<point x="636" y="423"/>
			<point x="537" y="423" type="curve" smooth="yes"/>
			<point x="521" y="423"/>
			<point x="505" y="422"/>
			<point x="484" y="416" type="curve"/>
			<point x="506" y="405" type="line"/>
			<point x="734" y="629" type="line"/>
			<point x="752" y="715" type="line"/>
			<point x="469" y="715" type="line" smooth="yes"/>
			<point x="285" y="715"/>
			<point x="163" y="610"/>
			<point x="122" y="417" type="curve" smooth="yes"/>
		</contour>
	</outline>
</glyph>
<glyph name="endash" format="2">
	<unicode hex="2013"/>
	<advance width="500"/>
	<outline>
		<contour>
			<point x="-4" y="229" type="line"/>
			<point x="496" y="229" type="line"/>
			<point x="515" y="317" type="line"/>
			<point x="14" y="317" type="line"/>
		</contour>
	</outline>
</glyph>
<glyph name="quoteleft" format="2">
	<unicode hex="2018"/>
	<advance width="241"/>
	<outline>
		<contour>
			<point x="198" y="579" type="line"/>
			<point x="202" y="621"/>
			<point x="240" y="683"/>
			<point x="295" y="740" type="curve"/>
			<point x="234" y="740" type="line"/>
			<point x="168" y="683"/>
			<point x="112" y="590"/>
			<point x="112" y="531" type="curve" smooth="yes"/>
			<point x="112" y="495"/>
			<point x="129" y="473"/>
			<point x="168" y="473" type="curve" smooth="yes"/>
			<point x="214" y="473"/>
			<point x="250" y="510"/>
			<point x="250" y="555" type="curve" smooth="yes"/>
			<point x="250" y="588"/>
			<point x="228" y="609"/>
			<point x="194" y="609" type="curve"/>
		</contour>
	</outline>
</glyph>
<glyph name="quoteright" format="2">
	<unicode hex="2019"/>
	<advance width="241"/>
	<outline>
		<contour>
			<point x="164" y="477" type="line"/>
			<point x="230" y="534"/>
			<point x="286" y="627"/>
			<point x="286" y="686" type="curve" smooth="yes"/>
			<point x="286" y="722"/>
			<point x="269" y="744"/>
			<point x="230" y="744" type="curve" smooth="yes"/>
			<point x="184" y="744"/>
			<point x="148" y="707"/>
			<point x="148" y="663" type="curve" smooth="yes"/>
			<point x="148" y="629"/>
			<point x="170" y="608"/>
			<point x="204" y="608" type="curve"/>
			<point x="200" y="638" type="line"/>
			<point x="196" y="596"/>
			<point x="158" y="534"/>
			<point x="103" y="477" type="curve"/>
		</contour>
	</outline>
</glyph>
<glyph name="daggerdbl" format="2">
	<unicode hex="2021"/>
	<advance width="440"/>
	<outline>
		<contour>
			<point x="93" y="-129" type="line"/>
			<point x="191" y="-129" type="line"/>
			<point x="374" y="736" type="line"/>
			<point x="276" y="736" type="line"/>
		</contour>
		<contour>
			<point x="74" y="413" type="line"/>
			<point x="440" y="413" type="line"/>
			<point x="458" y="497" type="line"/>
			<point x="91" y="497" type="line"/>
		</contour>
		<contour>
			<point x="9" y="108" type="line"/>
			<point x="375" y="108" type="line"/>
			<point x="393" y="192" type="line"/>
			<point x="26" y="192" type="line"/>
		</contour>
	</outline>
</glyph>
<glyph name="bullet" format="2">
	<unicode hex="2022"/>
	<advance width="350"/>
	<outline>
		<contour>
			<point x="60" y="249" type="curve" smooth="yes"/>
			<point x="60" y="195"/>
			<point x="100" y="156"/>
			<point x="155" y="156" type="curve" smooth="yes"/>
			<point x="231" y="156"/>
			<point x="301" y="222"/>
			<point x="301" y="299" type="curve" smooth="yes"/>
			<point x="301" y="353"/>
			<point x="261" y="392"/>
			<point x="206" y="392" type="curve" smooth="yes"/>
			<point x="131" y="392"/>
			<point x="60" y="326"/>
		</contour>
	</outline>
</glyph>
<glyph name="guilsinglleft" format="2">
	<unicode hex="2039"/>
	<advance width="309"/>
	<outline>
		<contour>
			<point x="118" y="33" type="line"/>
			<point x="227" y="33" type="line"/>
			<point x="135" y="248" type="line"/>
			<point x="319" y="463" type="line"/>
			<point x="210" y="463" type="line"/>
			<point x="27" y="248" type="line"/>
		</contour>
	</outline>
</glyph>
<glyph name="guilsinglright" format="2">
	<unicode hex="203A"/>
	<advance width="309"/>
	<outline>
		<contour>
			<point x="-10" y="33" type="line"/>
			<point x="99" y="33" type="line"/>
			<point x="282" y="248" type="line"/>
			<point x="191" y="463" type="line"/>
			<point x="82" y="463" type="line"/>
			<point x="174" y="248" type="line"/>
		</contour>
	</outline>
</glyph>
<glyph name="fraction" format="2">
	<unicode hex="2044"/>
	<advance width="173"/>
	<outline>
		<contour>
			<point x="-238" y="0" type="line"/>
			<point x="-132" y="0" type="line"/>
			<point x="458" y="715" type="line"/>
			<point x="352" y="715" type="line"/>
		</contour>
	</outline>
</glyph>
<glyph name="ruble" format="2">
	<unicode hex="20BD"/>
	<advance width="631"/>
	<outline>
		<contour>
			<point x="90" y="0" type="line"/>
			<point x="190" y="0" type="line"/>
			<point x="324" y="633" type="line"/>
			<point x="449" y="633" type="line" smooth="yes"/>
			<point x="520" y="633"/>
			<point x="557" y="598"/>
			<point x="557" y="533" type="curve" smooth="yes"/>
			<point x="557" y="447"/>
			<point x="493" y="386"/>
			<point x="396" y="386" type="curve" smooth="yes"/>
			<point x="68" y="386" type="line"/>
			<point x="50" y="304" type="line"/>
			<point x="378" y="304" type="line" smooth="yes"/>
			<point x="554" y="304"/>
			<point x="661" y="399"/>
			<point x="661" y="544" type="curve" smooth="yes"/>
			<point x="661" y="651"/>
			<point x="586" y="715"/>
			<point x="461" y="715" type="curve" smooth="yes"/>
			<point x="241" y="715" type="line"/>
		</contour>
		<contour>
			<point x="13" y="124" type="line"/>
			<point x="425" y="124" type="line"/>
			<point x="442" y="206" type="line"/>
			<point x="29" y="206" type="line"/>
		</contour>
	</outline>
</glyph>
<glyph name="trademark" format="2">
	<unicode hex="2122"/>
	<advance width="818"/>
	<outline>
		<contour>
			<point x="177" y="312" type="line"/>
			<point x="254" y="312" type="line"/>
			<point x="254" y="654" type="line"/>
			<point x="177" y="654" type="line"/>
		</contour>
		<contour>
			<point x="61" y="649" type="line"/>
			<point x="371" y="649" type="line"/>
			<point x="371" y="715" type="line"/>
			<point x="61" y="715" type="line"/>
		</contour>
		<contour>
			<point x="416" y="312" type="line"/>
			<point x="493" y="312" type="line"/>
			<point x="493" y="685" type="line"/>
			<point x="453" y="683" type="line"/>
			<point x="599" y="357" type="line"/>
			<point x="655" y="357" type="line"/>
			<point x="802" y="683" type="line"/>
			<point x="761" y="685" type="line"/>
			<point x="761" y="312" type="line"/>
			<point x="838" y="312" type="line"/>
			<point x="838" y="715" type="line"/>
			<point x="747" y="715" type="line"/>
			<point x="613" y="410" type="line"/>
			<point x="642" y="410" type="line"/>
			<point x="509" y="715" type="line"/>
			<point x="416" y="715" type="line"/>
		</contour>
	</outline>
</glyph>
<glyph name="minus" format="2">
	<unicode hex="2212"/>
	<advance width="632"/>
	<outline>
		<contour>
			<point x="135" y="316" type="line"/>
			<point x="525" y="316" type="line"/>
			<point x="543" y="398" type="line"/>
			<point x="152" y="398" type="line"/>
		</contour>
	</outline>
</glyph>
<glyph name="acutecomb.asc" format="2">
	<outline>
		<contour>
			<point x="-69" y="587" type="line"/>
			<point x="20" y="587" type="line"/>
			<point x="183" y="731" type="line"/>
			<point x="66" y="731" type="line"/>
		</contour>
	</outline>
	<anchor name="_top.LC" x="0" y="544"/>
</glyph>
<glyph name="acutecomb.cap" format="2">
	<outline>
		<contour>
			<point x="-64" y="782" type="line"/>
			<point x="34" y="782" type="line"/>
			<point x="215" y="926" type="line"/>
			<point x="88" y="926" type="line"/>
		</contour>
	</outline>
	<anchor name="_top.UC" x="0" y="750"/>
</glyph>
<glyph name="acutecomb.narrow" format="2">
	<outline>
		<contour>
			<point x="-72" y="587" type="line"/>
			<point x="7" y="587" type="line"/>
			<point x="157" y="761" type="line"/>
			<point x="48" y="761" type="line"/>
		</contour>
	</outline>
	<anchor name="_top.LC" x="0" y="544"/>
</glyph>
<glyph name="brevecomb.cap" format="2">
	<outline>
		<contour>
			<point x="-113" y="940" type="line"/>
			<point x="-114" y="933"/>
			<point x="-114" y="926"/>
			<point x="-114" y="920" type="curve" smooth="yes"/>
			<point x="-114" y="843"/>
			<point x="-62" y="795"/>
			<point x="19" y="795" type="curve" smooth="yes"/>
			<point x="120" y="795"/>
			<point x="186" y="852"/>
			<point x="208" y="940" type="curve"/>
			<point x="128" y="940" type="line"/>
			<point x="112" y="894"/>
			<point x="78" y="866"/>
			<point x="32" y="866" type="curve" smooth="yes"/>
			<point x="-8" y="866"/>
			<point x="-33" y="890"/>
			<point x="-33" y="931" type="curve" smooth="yes"/>
			<point x="-33" y="940" type="line"/>
		</contour>
	</outline>
	<anchor name="_top.UC" x="0" y="750"/>
</glyph>
<glyph name="caroncomb.cap" format="2">
	<outline>
		<contour>
			<point x="-36" y="799" type="line"/>
			<point x="61" y="799" type="line"/>
			<point x="216" y="943" type="line"/>
			<point x="121" y="943" type="line"/>
			<point x="-29" y="815" type="line"/>
			<point x="61" y="815" type="line"/>
			<point x="-36" y="943" type="line"/>
			<point x="-131" y="943" type="line"/>
		</contour>
	</outline>
	<anchor name="_top.UC" x="0" y="750"/>
</glyph>
<glyph name="circumflexcomb.cap" format="2">
	<outline>
		<contour>
			<point x="-162" y="799" type="line"/>
			<point x="-67" y="799" type="line"/>
			<point x="84" y="927" type="line"/>
			<point x="-6" y="927" type="line"/>
			<point x="91" y="799" type="line"/>
			<point x="185" y="799" type="line"/>
			<point x="90" y="943" type="line"/>
			<point x="-7" y="943" type="line"/>
		</contour>
	</outline>
	<anchor name="_top.UC" x="0" y="750"/>
</glyph>
<glyph name="circumflexcomb.narrow" format="2">
	<outline>
		<contour>
			<point x="-142" y="587" type="line"/>
			<point x="-58" y="587" type="line"/>
			<point x="88" y="742" type="line"/>
			<point x="0" y="742" type="line"/>
			<point x="80" y="587" type="line"/>
			<point x="164" y="587" type="line"/>
			<point x="85" y="761" type="line"/>
			<point x="11" y="761" type="line"/>
		</contour>
	</outline>
	<anchor name="_top.LC" x="0" y="544"/>
</glyph>
<glyph name="commaaboverightcomb.short" format="2">
	<outline>
		<contour>
			<point x="8" y="553" type="line"/>
			<point x="50" y="596"/>
			<point x="90" y="646"/>
			<point x="90" y="691" type="curve" smooth="yes"/>
			<point x="90" y="722"/>
			<point x="72" y="740"/>
			<point x="41" y="740" type="curve" smooth="yes"/>
			<point x="6" y="740"/>
			<point x="-21" y="713"/>
			<point x="-21" y="678" type="curve" smooth="yes"/>
			<point x="-21" y="651"/>
			<point x="-1" y="632"/>
			<point x="27" y="632" type="curve"/>
			<point x="13" y="655" type="line"/>
			<point x="7" y="627"/>
			<point x="-20" y="587"/>
			<point x="-50" y="553" type="curve"/>
		</contour>
	</outline>
	<anchor name="_top_right.LC.short" x="0" y="540"/>
</glyph>
<glyph name="commabelowcomb.cap" format="2">
	<outline>
		<contour>
			<point x="-48" y="-280" type="line"/>
			<point x="0" y="-228"/>
			<point x="36" y="-176"/>
			<point x="36" y="-135" type="curve" smooth="yes"/>
			<point x="36" y="-103"/>
			<point x="17" y="-85"/>
			<point x="-13" y="-85" type="curve" smooth="yes"/>
			<point x="-51" y="-85"/>
			<point x="-75" y="-111"/>
			<point x="-75" y="-145" type="curve" smooth="yes"/>
			<point x="-75" y="-173"/>
			<point x="-56" y="-190"/>
			<point x="-29" y="-190" type="curve"/>
			<point x="-42" y="-170" type="line"/>
			<point x="-45" y="-197"/>
			<point x="-72" y="-242"/>
			<point x="-107" y="-280" type="curve"/>
		</contour>
	</outline>
	<anchor name="_bottom.UC" x="0" y="-50"/>
</glyph>
<glyph name="dieresiscomb.cap" format="2">
	<outline>
		<contour>
			<point x="-91" y="802" type="curve" smooth="yes"/>
			<point x="-46" y="802"/>
			<point x="-14" y="837"/>
			<point x="-14" y="879" type="curve" smooth="yes"/>
			<point x="-14" y="908"/>
			<point x="-35" y="929"/>
			<point x="-64" y="929" type="curve" smooth="yes"/>
			<point x="-110" y="929"/>
			<point x="-143" y="894"/>
			<point x="-143" y="852" type="curve" smooth="yes"/>
			<point x="-143" y="823"/>
			<point x="-122" y="802"/>
		</contour>
		<contour>
			<point x="116" y="802" type="curve" smooth="yes"/>
			<point x="161" y="802"/>
			<point x="193" y="837"/>
			<point x="193" y="879" type="curve" smooth="yes"/>
			<point x="193" y="908"/>
			<point x="172" y="929"/>
			<point x="143" y="929" type="curve" smooth="yes"/>
			<point x="97" y="929"/>
			<point x="64" y="894"/>
			<point x="64" y="852" type="curve" smooth="yes"/>
			<point x="64" y="823"/>
			<point x="85" y="802"/>
		</contour>
	</outline>
	<anchor name="_top.UC" x="0" y="750"/>
</glyph>
<glyph name="dieresiscomb.narrow" format="2">
	<outline>
		<contour>
			<point x="-66" y="613" type="curve" smooth="yes"/>
			<point x="-22" y="613"/>
			<point x="8" y="647"/>
			<point x="8" y="686" type="curve" smooth="yes"/>
			<point x="8" y="714"/>
			<point x="-12" y="734"/>
			<point x="-40" y="734" type="curve" smooth="yes"/>
			<point x="-84" y="734"/>
			<point x="-114" y="699"/>
			<point x="-114" y="660" type="curve" smooth="yes"/>
			<point x="-114" y="633"/>
			<point x="-95" y="613"/>
		</contour>
		<contour>
			<point x="90" y="613" type="curve" smooth="yes"/>
			<point x="134" y="613"/>
			<point x="164" y="647"/>
			<point x="164" y="686" type="curve" smooth="yes"/>
			<point x="164" y="714"/>
			<point x="144" y="734"/>
			<point x="116" y="734" type="curve" smooth="yes"/>
			<point x="72" y="734"/>
			<point x="42" y="699"/>
			<point x="42" y="660" type="curve" smooth="yes"/>
			<point x="42" y="633"/>
			<point x="61" y="613"/>
		</contour>
	</outline>
	<anchor name="_top.LC" x="0" y="544"/>
</glyph>
<glyph name="dotbelowcomb.cap" format="2">
	<outline>
		<contour>
			<point x="-92" y="-180" type="curve" smooth="yes"/>
			<point x="-92" y="-210"/>
			<point x="-72" y="-231"/>
			<point x="-40" y="-231" type="curve" smooth="yes"/>
			<point x="6" y="-231"/>
			<point x="40" y="-194"/>
			<point x="40" y="-151" type="curve" smooth="yes"/>
			<point x="40" y="-121"/>
			<point x="20" y="-100"/>
			<point x="-12" y="-100" type="curve" smooth="yes"/>
			<point x="-58" y="-100"/>
			<point x="-92" y="-137"/>
		</contour>
	</outline>
	<anchor name="_bottom.UC" x="0" y="-50"/>
</glyph>
<glyph name="eight.dnom" format="2">
	<advance width="391"/>
	<outline>
		<contour>
			<point x="11" y="87" type="curve" smooth="yes"/>
			<point x="11" y="29"/>
			<point x="62" y="-9"/>
			<point x="142" y="-9" type="curve" smooth="yes"/>
			<point x="242" y="-9"/>
			<point x="324" y="55"/>
			<point x="324" y="134" type="curve"/>
			<point x="324" y="192"/>
			<point x="272" y="230"/>
			<point x="193" y="230" type="curve" smooth="yes"/>
			<point x="92" y="230"/>
			<point x="11" y="166"/>
		</contour>
		<contour>
			<point x="69" y="287" type="curve" smooth="yes"/>
			<point x="69" y="235"/>
			<point x="115" y="201"/>
			<point x="186" y="201" type="curve" smooth="yes"/>
			<point x="275" y="201"/>
			<point x="349" y="259"/>
			<point x="349" y="327" type="curve" smooth="yes"/>
			<point x="349" y="381"/>
			<point x="301" y="417"/>
			<point x="231" y="417" type="curve" smooth="yes"/>
			<point x="143" y="417"/>
			<point x="69" y="358"/>
		</contour>
		<contour>
			<point x="94" y="105" type="curve" smooth="yes"/>
			<point x="94" y="146"/>
			<point x="134" y="180"/>
			<point x="182" y="180" type="curve" smooth="yes"/>
			<point x="219" y="180"/>
			<point x="243" y="161"/>
			<point x="243" y="131" type="curve" smooth="yes"/>
			<point x="243" y="90"/>
			<point x="204" y="57"/>
			<point x="155" y="57" type="curve" smooth="yes"/>
			<point x="118" y="57"/>
			<point x="94" y="76"/>
		</contour>
		<contour>
			<point x="146" y="286" type="curve" smooth="yes"/>
			<point x="146" y="322"/>
			<point x="179" y="351"/>
			<point x="218" y="351" type="curve" smooth="yes"/>
			<point x="248" y="351"/>
			<point x="267" y="335"/>
			<point x="267" y="310" type="curve" smooth="yes"/>
			<point x="267" y="274"/>
			<point x="233" y="242"/>
			<point x="195" y="242" type="curve" smooth="yes"/>
			<point x="166" y="242"/>
			<point x="146" y="260"/>
		</contour>
	</outline>
</glyph>
<glyph name="exclamdown.case" format="2">
	<advance width="238"/>
	<outline>
		<contour>
			<point x="151" y="490" type="line"/>
			<point x="136" y="437"/>
			<point x="69" y="193"/>
			<point x="39" y="85" type="curve" smooth="yes"/>
			<point x="28" y="46"/>
			<point x="24" y="31"/>
			<point x="24" y="21" type="curve" smooth="yes"/>
			<point x="24" y="-10"/>
			<point x="43" y="-28"/>
			<point x="74" y="-28" type="curve" smooth="yes"/>
			<point x="92" y="-28"/>
			<point x="107" y="-23"/>
			<point x="117" y="-14" type="curve" smooth="yes"/>
			<point x="132" y="0"/>
			<point x="138" y="19"/>
			<point x="144" y="53" type="curve" smooth="yes"/>
			<point x="153" y="106"/>
			<point x="204" y="443"/>
			<point x="211" y="490" type="curve"/>
		</contour>
		<contour>
			<point x="143" y="635" type="curve" smooth="yes"/>
			<point x="143" y="601"/>
			<point x="167" y="576"/>
			<point x="201" y="576" type="curve" smooth="yes"/>
			<point x="247" y="576"/>
			<point x="281" y="610"/>
			<point x="281" y="658" type="curve" smooth="yes"/>
			<point x="281" y="691"/>
			<point x="256" y="715"/>
			<point x="222" y="715" type="curve" smooth="yes"/>
			<point x="176" y="715"/>
			<point x="143" y="682"/>
		</contour>
	</outline>
</glyph>
<glyph name="five.dnom" format="2">
	<advance width="370"/>
	<outline>
		<contour>
			<point x="31" y="176" type="line"/>
			<point x="102" y="176" type="line"/>
			<point x="123" y="196"/>
			<point x="148" y="207"/>
			<point x="176" y="207" type="curve" smooth="yes"/>
			<point x="209" y="207"/>
			<point x="231" y="184"/>
			<point x="231" y="150" type="curve" smooth="yes"/>
			<point x="231" y="99"/>
			<point x="188" y="58"/>
			<point x="134" y="58" type="curve" smooth="yes"/>
			<point x="99" y="58"/>
			<point x="74" y="75"/>
			<point x="50" y="116" type="curve"/>
			<point x="-5" y="68" type="line"/>
			<point x="21" y="17"/>
			<point x="68" y="-9"/>
			<point x="132" y="-9" type="curve" smooth="yes"/>
			<point x="232" y="-9"/>
			<point x="312" y="68"/>
			<point x="312" y="167" type="curve" smooth="yes"/>
			<point x="312" y="230"/>
			<point x="268" y="272"/>
			<point x="201" y="272" type="curve" smooth="yes"/>
			<point x="168" y="272"/>
			<point x="135" y="258"/>
			<point x="109" y="233" type="curve"/>
			<point x="118" y="227" type="line"/>
			<point x="162" y="361" type="line"/>
			<point x="136" y="342" type="line"/>
			<point x="327" y="342" type="line"/>
			<point x="341" y="408" type="line"/>
			<point x="107" y="408" type="line"/>
		</contour>
	</outline>
</glyph>
<glyph name="gravecomb.cap" format="2">
	<outline>
		<contour>
			<point x="-46" y="796" type="line"/>
			<point x="50" y="796" type="line"/>
			<point x="-46" y="940" type="line"/>
			<point x="-167" y="940" type="line"/>
		</contour>
	</outline>
	<anchor name="_top.UC" x="0" y="750"/>
</glyph>
<glyph name="gravecomb.narrow" format="2">
	<outline>
		<contour>
			<point x="-39" y="587" type="line"/>
			<point x="41" y="587" type="line"/>
			<point x="-7" y="761" type="line"/>
			<point x="-112" y="761" type="line"/>
		</contour>
	</outline>
	<anchor name="_top.LC" x="0" y="544"/>
</glyph>
<glyph name="macroncomb.narrow" format="2">
	<outline>
		<contour>
			<point x="-124" y="614" type="line"/>
			<point x="120" y="614" type="line"/>
			<point x="136" y="688" type="line"/>
			<point x="-109" y="688" type="line"/>
		</contour>
	</outline>
	<anchor name="_top.LC" x="0" y="544"/>
</glyph>
<glyph name="ogonekcomb.round.cap" format="2">
	<outline>
		<contour>
			<point x="71" y="-170" type="line"/>
			<point x="61" y="-173"/>
			<point x="50" y="-174"/>
			<point x="42" y="-174" type="curve" smooth="yes"/>
			<point x="12" y="-174"/>
			<point x="-6" y="-158"/>
			<point x="-6" y="-131" type="curve" smooth="yes"/>
			<point x="-6" y="-77"/>
			<point x="47" y="-20"/>
			<point x="135" y="23" type="curve"/>
			<point x="64" y="23" type="line"/>
			<point x="-42" y="-31"/>
			<point x="-92" y="-91"/>
			<point x="-92" y="-163" type="curve" smooth="yes"/>
			<point x="-92" y="-218"/>
			<point x="-53" y="-250"/>
			<point x="13" y="-250" type="curve" smooth="yes"/>
			<point x="29" y="-250"/>
			<point x="42" y="-249"/>
			<point x="55" y="-246" type="curve"/>
		</contour>
	</outline>
	<anchor name="_ogonek.UC.round" x="0" y="-30"/>
</glyph>
<glyph name="ogonekcomb.round" format="2">
	<outline>
		<contour>
			<point x="46" y="-171" type="line"/>
			<point x="36" y="-173"/>
			<point x="25" y="-175"/>
			<point x="17" y="-175" type="curve" smooth="yes"/>
			<point x="-13" y="-175"/>
			<point x="-31" y="-159"/>
			<point x="-31" y="-131" type="curve" smooth="yes"/>
			<point x="-31" y="-81"/>
			<point x="21" y="-16"/>
			<point x="109" y="48" type="curve"/>
			<point x="64" y="54" type="line"/>
			<point x="-59" y="-18"/>
			<point x="-116" y="-86"/>
			<point x="-116" y="-162" type="curve" smooth="yes"/>
			<point x="-116" y="-216"/>
			<point x="-76" y="-249"/>
			<point x="-11" y="-249" type="curve" smooth="yes"/>
			<point x="5" y="-249"/>
			<point x="17" y="-248"/>
			<point x="30" y="-245" type="curve"/>
		</contour>
	</outline>
	<anchor name="_ogonek.LC.round" x="0" y="-30"/>
</glyph>
<glyph name="one.dnom" format="2">
	<advance width="352"/>
	<outline>
		<contour>
			<point x="114" y="0" type="line"/>
			<point x="195" y="0" type="line"/>
			<point x="282" y="411" type="line"/>
			<point x="216" y="411" type="line"/>
			<point x="90" y="331" type="line"/>
			<point x="73" y="249" type="line"/>
			<point x="183" y="323" type="line"/>
		</contour>
	</outline>
</glyph>
<glyph name="questiondown.case" format="2">
	<advance width="567"/>
	<outline>
		<contour>
			<point x="436" y="172" type="line"/>
			<point x="380" y="99"/>
			<point x="316" y="59"/>
			<point x="254" y="59" type="curve" smooth="yes"/>
			<point x="188" y="59"/>
			<point x="148" y="97"/>
			<point x="148" y="152" type="curve" smooth="yes"/>
			<point x="148" y="203"/>
			<point x="180" y="243"/>
			<point x="249" y="280" type="curve" smooth="yes"/>
			<point x="354" y="336"/>
			<point x="382" y="384"/>
			<point x="395" y="490" type="curve"/>
			<point x="321" y="490" type="line"/>
			<point x="307" y="421"/>
			<point x="280" y="386"/>
			<point x="212" y="348" type="curve" smooth="yes"/>
			<point x="100" y="285"/>
			<point x="49" y="222"/>
			<point x="49" y="139" type="curve" smooth="yes"/>
			<point x="49" y="46"/>
			<point x="129" y="-28"/>
			<point x="243" y="-28" type="curve" smooth="yes"/>
			<point x="340" y="-28"/>
			<point x="422" y="15"/>
			<point x="497" y="105" type="curve"/>
		</contour>
		<contour>
			<point x="372" y="576" type="curve" smooth="yes"/>
			<point x="418" y="576"/>
			<point x="452" y="610"/>
			<point x="452" y="658" type="curve" smooth="yes"/>
			<point x="452" y="691"/>
			<point x="427" y="715"/>
			<point x="393" y="715" type="curve" smooth="yes"/>
			<point x="347" y="715"/>
			<point x="314" y="682"/>
			<point x="314" y="635" type="curve" smooth="yes"/>
			<point x="314" y="601"/>
			<point x="338" y="576"/>
		</contour>
	</outline>
</glyph>
<glyph name="ringcomb.cap" format="2">
	<outline>
		<contour>
			<point x="50" y="976" type="curve" smooth="yes"/>
			<point x="-28" y="976"/>
			<point x="-89" y="916"/>
			<point x="-89" y="837" type="curve" smooth="yes"/>
			<point x="-89" y="784"/>
			<point x="-51" y="746"/>
			<point x="1" y="746" type="curve" smooth="yes"/>
			<point x="78" y="746"/>
			<point x="141" y="809"/>
			<point x="141" y="886" type="curve" smooth="yes"/>
			<point x="141" y="939"/>
			<point x="103" y="976"/>
		</contour>
		<contour>
			<point x="37" y="918" type="curve" smooth="yes"/>
			<point x="62" y="918"/>
			<point x="78" y="901"/>
			<point x="78" y="875" type="curve" smooth="yes"/>
			<point x="78" y="836"/>
			<point x="49" y="805"/>
			<point x="14" y="805" type="curve" smooth="yes"/>
			<point x="-11" y="805"/>
			<point x="-26" y="821"/>
			<point x="-26" y="848" type="curve" smooth="yes"/>
			<point x="-26" y="888"/>
			<point x="1" y="918"/>
		</contour>
	</outline>
	<anchor name="_top.UC" x="0" y="750"/>
</glyph>
<glyph name="seven.dnom" format="2">
	<advance width="372"/>
	<outline>
		<contour>
			<point x="66" y="341" type="line"/>
			<point x="290" y="341" type="line"/>
			<point x="280" y="361" type="line"/>
			<point x="-3" y="0" type="line"/>
			<point x="83" y="0" type="line"/>
			<point x="349" y="341" type="line"/>
			<point x="363" y="408" type="line"/>
			<point x="79" y="408" type="line"/>
		</contour>
	</outline>
</glyph>
<glyph name="six.dnom" format="2">
	<advance width="389"/>
	<outline>
		<contour>
			<point x="242" y="408" type="line"/>
			<point x="80" y="289"/>
			<point x="17" y="205"/>
			<point x="17" y="110" type="curve" smooth="yes"/>
			<point x="17" y="36"/>
			<point x="69" y="-9"/>
			<point x="145" y="-9" type="curve" smooth="yes"/>
			<point x="252" y="-9"/>
			<point x="327" y="61"/>
			<point x="327" y="164" type="curve" smooth="yes"/>
			<point x="327" y="228"/>
			<point x="283" y="270"/>
			<point x="214" y="270" type="curve" smooth="yes"/>
			<point x="177" y="270"/>
			<point x="140" y="248"/>
			<point x="114" y="208" type="curve"/>
			<point x="123" y="204" type="line"/>
			<point x="153" y="262"/>
			<point x="216" y="320"/>
			<point x="348" y="408" type="curve"/>
		</contour>
		<contour>
			<point x="186" y="206" type="curve" smooth="yes"/>
			<point x="224" y="206"/>
			<point x="248" y="183"/>
			<point x="248" y="149" type="curve" smooth="yes"/>
			<point x="248" y="97"/>
			<point x="209" y="58"/>
			<point x="156" y="58" type="curve" smooth="yes"/>
			<point x="119" y="58"/>
			<point x="95" y="82"/>
			<point x="95" y="116" type="curve" smooth="yes"/>
			<point x="95" y="164"/>
			<point x="138" y="206"/>
		</contour>
	</outline>
</glyph>
<glyph name="three.dnom" format="2">
	<advance width="372"/>
	<outline>
		<contour>
			<point x="-7" y="79" type="line"/>
			<point x="20" y="24"/>
			<point x="75" y="-9"/>
			<point x="141" y="-9" type="curve" smooth="yes"/>
			<point x="235" y="-9"/>
			<point x="305" y="51"/>
			<point x="305" y="130" type="curve" smooth="yes"/>
			<point x="305" y="186"/>
			<point x="257" y="224"/>
			<point x="179" y="228" type="curve"/>
			<point x="155" y="228" type="line"/>
			<point x="150" y="203" type="line"/>
			<point x="176" y="203" type="line" smooth="yes"/>
			<point x="273" y="203"/>
			<point x="332" y="246"/>
			<point x="332" y="316" type="curve" smooth="yes"/>
			<point x="332" y="375"/>
			<point x="281" y="417"/>
			<point x="209" y="417" type="curve" smooth="yes"/>
			<point x="152" y="417"/>
			<point x="93" y="391"/>
			<point x="57" y="350" type="curve"/>
			<point x="94" y="298" type="line"/>
			<point x="121" y="331"/>
			<point x="157" y="351"/>
			<point x="192" y="351" type="curve" smooth="yes"/>
			<point x="231" y="351"/>
			<point x="253" y="334"/>
			<point x="253" y="304" type="curve" smooth="yes"/>
			<point x="253" y="269"/>
			<point x="221" y="244"/>
			<point x="175" y="244" type="curve" smooth="yes"/>
			<point x="140" y="244" type="line"/>
			<point x="127" y="180" type="line"/>
			<point x="159" y="180" type="line"/>
			<point x="200" y="180"/>
			<point x="225" y="160"/>
			<point x="225" y="130" type="curve" smooth="yes"/>
			<point x="225" y="87"/>
			<point x="191" y="57"/>
			<point x="143" y="57" type="curve" smooth="yes"/>
			<point x="101" y="57"/>
			<point x="69" y="80"/>
			<point x="48" y="123" type="curve"/>
		</contour>
	</outline>
</glyph>
<glyph name="tildecomb.cap" format="2">
	<outline>
		<contour>
			<point x="-52" y="922" type="curve" smooth="yes"/>
			<point x="-101" y="922"/>
			<point x="-150" y="892"/>
			<point x="-175" y="827" type="curve"/>
			<point x="-114" y="795" type="line"/>
			<point x="-99" y="833"/>
			<point x="-79" y="850"/>
			<point x="-62" y="850" type="curve" smooth="yes"/>
			<point x="-45" y="850"/>
			<point x="-35" y="838"/>
			<point x="-21" y="825" type="curve" smooth="yes"/>
			<point x="4" y="801"/>
			<point x="31" y="788"/>
			<point x="63" y="788" type="curve" smooth="yes"/>
			<point x="112" y="788"/>
			<point x="161" y="818"/>
			<point x="186" y="883" type="curve"/>
			<point x="125" y="915" type="line"/>
			<point x="110" y="877"/>
			<point x="90" y="860"/>
			<point x="73" y="860" type="curve" smooth="yes"/>
			<point x="57" y="860"/>
			<point x="45" y="873"/>
			<point x="31" y="886" type="curve" smooth="yes"/>
			<point x="6" y="909"/>
			<point x="-20" y="922"/>
		</contour>
	</outline>
	<anchor name="_top.UC" x="0" y="750"/>
</glyph>
<glyph name="tildecomb.narrow" format="2">
	<outline>
		<contour>
			<point x="20" y="689" type="curve" smooth="yes"/>
			<point x="-5" y="716"/>
			<point x="-26" y="727"/>
			<point x="-50" y="727" type="curve" smooth="yes"/>
			<point x="-93" y="727"/>
			<point x="-131" y="691"/>
			<point x="-155" y="627" type="curve"/>
			<point x="-101" y="594" type="line"/>
			<point x="-88" y="634"/>
			<point x="-73" y="654"/>
			<point x="-56" y="654" type="curve" smooth="yes"/>
			<point x="-47" y="654"/>
			<point x="-43" y="652"/>
			<point x="-24" y="630" type="curve" smooth="yes"/>
			<point x="0" y="604"/>
			<point x="21" y="592"/>
			<point x="46" y="592" type="curve" smooth="yes"/>
			<point x="90" y="592"/>
			<point x="127" y="629"/>
			<point x="151" y="693" type="curve"/>
			<point x="98" y="726" type="line"/>
			<point x="85" y="685"/>
			<point x="70" y="666"/>
			<point x="53" y="666" type="curve" smooth="yes"/>
			<point x="44" y="666"/>
			<point x="41" y="667"/>
		</contour>
	</outline>
	<anchor name="_top.LC" x="0" y="544"/>
</glyph>
<glyph name="two.dnom" format="2">
	<advance width="386"/>
	<outline>
		<contour>
			<point x="-9" y="0" type="line"/>
			<point x="272" y="0" type="line"/>
			<point x="287" y="66" type="line"/>
			<point x="97" y="66" type="line"/>
			<point x="99" y="49" type="line"/>
			<point x="199" y="130" type="line" smooth="yes"/>
			<point x="296" y="201"/>
			<point x="333" y="250"/>
			<point x="333" y="312" type="curve" smooth="yes"/>
			<point x="333" y="374"/>
			<point x="282" y="417"/>
			<point x="211" y="417" type="curve" smooth="yes"/>
			<point x="154" y="417"/>
			<point x="100" y="391"/>
			<point x="53" y="342" type="curve"/>
			<point x="95" y="287" type="line"/>
			<point x="127" y="329"/>
			<point x="161" y="350"/>
			<point x="196" y="350" type="curve" smooth="yes"/>
			<point x="231" y="350"/>
			<point x="252" y="331"/>
			<point x="252" y="302" type="curve" smooth="yes"/>
			<point x="252" y="269"/>
			<point x="232" y="241"/>
			<point x="173" y="194" type="curve" smooth="yes"/>
			<point x="3" y="59" type="line"/>
		</contour>
	</outline>
</glyph>
<glyph name="zero.percent" format="2">
	<advance width="366"/>
	<outline>
		<contour>
			<point x="84" y="141" type="curve" smooth="yes"/>
			<point x="84" y="194"/>
			<point x="124" y="238"/>
			<point x="174" y="238" type="curve" smooth="yes"/>
			<point x="215" y="238"/>
			<point x="242" y="208"/>
			<point x="242" y="165" type="curve" smooth="yes"/>
			<point x="242" y="112"/>
			<point x="202" y="68"/>
			<point x="153" y="68" type="curve" smooth="yes"/>
			<point x="112" y="68"/>
			<point x="84" y="98"/>
		</contour>
		<contour>
			<point x="3" y="133" type="curve" smooth="yes"/>
			<point x="3" y="50"/>
			<point x="65" y="-8"/>
			<point x="146" y="-8" type="curve" smooth="yes"/>
			<point x="244" y="-8"/>
			<point x="323" y="77"/>
			<point x="323" y="173" type="curve" smooth="yes"/>
			<point x="323" y="256"/>
			<point x="262" y="314"/>
			<point x="181" y="314" type="curve" smooth="yes"/>
			<point x="83" y="314"/>
			<point x="3" y="229"/>
		</contour>
	</outline>
	<guideline y="-8"/>
	<guideline y="68"/>
	<guideline y="238"/>
</glyph>
